<?xml version="1.0" encoding="UTF-8"?>
<svg version="1.1" xmlns="http://www.w3.org/2000/svg" width="1024" height="1024">
<path d="M0 0 C337.92 0 675.84 0 1024 0 C1024 337.92 1024 675.84 1024 1024 C686.08 1024 348.16 1024 0 1024 C0 686.08 0 348.16 0 0 Z " fill="#000306" transform="translate(0,0)"/>
<path d="M0 0 C2.20678547 -0.02755683 4.4135725 -0.0549886 6.62036133 -0.08227539 C8.13758663 -0.11874554 8.13758663 -0.11874554 9.68546295 -0.15595245 C10.60447136 -0.16446983 11.52347977 -0.17298721 12.47033691 -0.1817627 C13.27220177 -0.19608086 14.07406662 -0.21039902 14.90023041 -0.22515106 C15.86481045 -0.05484753 15.86481045 -0.05484753 16.84887695 0.11889648 C19.36599447 3.89457276 19.12412639 6.86246379 19.09497261 11.23425579 C19.0972803 12.07515067 19.09958799 12.91604555 19.10196561 13.7824221 C19.10729637 16.62493876 19.09825608 19.46723283 19.08938599 22.30973816 C19.09025742 24.35822885 19.09200726 26.40671932 19.09456432 28.4552086 C19.099054 34.10363945 19.09101199 39.75199501 19.0810082 45.40041625 C19.07239925 51.48426497 19.07529204 57.56810919 19.07681274 63.65196228 C19.07786322 74.19907279 19.07163924 84.74616145 19.06033707 95.29326439 C19.04851114 106.35744531 19.04080682 117.4216164 19.03863144 128.4858036 C19.03849396 129.17322539 19.03835648 129.86064717 19.03821484 130.56889992 C19.03753819 134.05983531 19.03693541 137.55077071 19.03636108 141.04170612 C19.03215802 165.78090323 19.01867705 190.52008748 18.99975586 215.25927734 C18.98139308 239.2960605 18.96722287 263.33284014 18.95874023 287.36962891 C18.95847718 288.11028606 18.95821413 288.85094321 18.95794311 289.61404452 C18.95530611 297.051892 18.95275448 304.4897395 18.95026539 311.92758703 C18.94519269 327.07992414 18.93955018 342.23226101 18.93356323 357.38459778 C18.93315136 358.42966373 18.93315136 358.42966373 18.93273117 359.49584213 C18.91432361 406.03686575 18.882479 452.57788162 18.84887695 499.11889648 C10.26887695 499.11889648 1.68887695 499.11889648 -7.15112305 499.11889648 C-6.82112305 499.77889648 -6.49112305 500.43889648 -6.15112305 501.11889648 C-6.15112305 509.03889648 -6.15112305 516.95889648 -6.15112305 525.11889648 C-40.80112305 525.11889648 -75.45112305 525.11889648 -111.15112305 525.11889648 C-111.15112305 508.28889648 -111.15112305 491.45889648 -111.15112305 474.11889648 C-118.91564093 473.49838073 -118.91564093 473.49838073 -126.15112305 475.11889648 C-126.15112305 474.45889648 -126.15112305 473.79889648 -126.15112305 473.11889648 C-129.12112305 473.77889648 -132.09112305 474.43889648 -135.15112305 475.11889648 C-136.85158719 471.7179682 -136.29234967 467.84036304 -136.28393555 464.09936523 C-136.28525482 463.18062622 -136.2865741 462.26188721 -136.28793335 461.31530762 C-136.28985665 458.31230342 -136.28350236 455.30939127 -136.27612305 452.30639648 C-136.2747937 450.78582138 -136.2747937 450.78582138 -136.2734375 449.23452759 C-136.25619803 432.50875713 -135.91871179 415.82765858 -135.15112305 399.11889648 C-127.89112305 399.11889648 -120.63112305 399.11889648 -113.15112305 399.11889648 C-113.15112305 390.53889648 -113.15112305 381.95889648 -113.15112305 373.11889648 C-78.17112305 373.11889648 -43.19112305 373.11889648 -7.15112305 373.11889648 C-7.48112305 362.55889648 -7.81112305 351.99889648 -8.15112305 341.11889648 C-8.23047152 332.59279652 -8.27948057 324.07228043 -8.26464844 315.54663086 C-8.264365 313.18726096 -8.26452733 310.82789097 -8.26509094 308.46852112 C-8.26537284 302.1834184 -8.25957647 295.89833556 -8.25251698 289.61323738 C-8.24682591 283.67412152 -8.24588706 277.73500548 -8.24486511 271.79588741 C-8.24269668 260.06159382 -8.23609773 248.32730733 -8.2265625 236.59301758 C-8.21733038 225.21964553 -8.21027823 213.84627544 -8.20605469 202.47290039 C-8.2056606 201.4146732 -8.2056606 201.4146732 -8.20525856 200.33506769 C-8.20395316 196.79453497 -8.20268954 193.25400224 -8.20144665 189.71346951 C-8.19114308 160.51527394 -8.17351008 131.31708529 -8.15112305 102.11889648 C-8.86816595 102.14867805 -9.58520885 102.17845961 -10.32398033 102.20914364 C-36.29905621 103.27749131 -36.29905621 103.27749131 -47.62768555 103.21655273 C-48.70069916 103.21513779 -49.77371277 103.21372284 -50.87924194 103.21226501 C-54.17823569 103.20683889 -57.47715122 103.19432693 -60.77612305 103.18139648 C-63.06648662 103.17635879 -65.35685131 103.17179999 -67.6472168 103.16772461 C-73.14857038 103.15779437 -78.64976334 103.13819198 -84.15112305 103.11889648 C-84.15112305 112.02889648 -84.15112305 120.93889648 -84.15112305 130.11889648 C-128.37112305 130.11889648 -172.59112305 130.11889648 -218.15112305 130.11889648 C-218.15112305 138.69889648 -218.15112305 147.27889648 -218.15112305 156.11889648 C-222.25739867 156.80327576 -224.95239183 157.24073608 -228.89331055 156.99780273 C-229.73120117 156.94946289 -230.5690918 156.90112305 -231.43237305 156.85131836 C-232.28831055 156.79524414 -233.14424805 156.73916992 -234.02612305 156.68139648 C-234.90526367 156.62918945 -235.7844043 156.57698242 -236.69018555 156.52319336 C-238.84419803 156.39442087 -240.99771964 156.25748185 -243.15112305 156.11889648 C-243.15020125 157.24882113 -243.14927946 158.37874578 -243.14832973 159.54291058 C-243.12606957 187.11447486 -243.10966862 214.68603797 -243.09931087 242.25760937 C-243.09828445 244.9188099 -243.0972498 247.58001042 -243.09619141 250.24121094 C-243.0959291 250.90260951 -243.09566679 251.56400809 -243.09539653 252.24544904 C-243.091331 262.24989849 -243.08429741 272.25434237 -243.07568359 282.25878906 C-243.06567503 293.88875578 -243.059255 305.51871818 -243.05703455 317.14868909 C-243.05573788 323.29908967 -243.05271872 329.4494779 -243.04539299 335.5998745 C-243.03853511 341.40529196 -243.03652567 347.21069215 -243.03801537 353.01611328 C-243.03774338 355.13103136 -243.03579682 357.2459501 -243.03191757 359.36086464 C-243.00819554 372.97779085 -243.38078427 386.52324538 -244.15112305 400.11889648 C-248.29695059 400.14658519 -252.44273213 400.16564975 -256.58862305 400.18139648 C-257.77262695 400.18977539 -258.95663086 400.1981543 -260.17651367 400.20678711 C-261.3012207 400.21000977 -262.42592773 400.21323242 -263.5847168 400.21655273 C-265.14790649 400.22440796 -265.14790649 400.22440796 -266.74267578 400.23242188 C-269.15112305 400.11889648 -269.15112305 400.11889648 -270.15112305 399.11889648 C-270.24866389 397.28401586 -270.27483687 395.44532707 -270.27417088 393.6078558 C-270.27616192 392.40409327 -270.27815297 391.20033075 -270.28020436 389.96009058 C-270.27735077 388.60709612 -270.27440516 387.25410186 -270.27137756 385.90110779 C-270.27181314 384.47718841 -270.2726878 383.05326911 -270.27396673 381.62935024 C-270.27621436 377.69805649 -270.27218677 373.76678972 -270.26718867 369.83549941 C-270.26288818 365.60303026 -270.2643303 361.37056276 -270.26509094 357.13809204 C-270.26561643 349.79891535 -270.26246702 342.45974751 -270.2568531 335.12057304 C-270.24874149 324.50923253 -270.24612323 313.89789631 -270.24486511 303.28655303 C-270.24267406 286.07221782 -270.23601253 268.85788733 -270.2265625 251.64355469 C-270.21738976 234.91699243 -270.21030825 218.19043145 -270.20605469 201.46386719 C-270.20579196 200.43361644 -270.20552924 199.40336569 -270.20525856 198.34189522 C-270.20395356 193.17366127 -270.20268984 188.00542733 -270.20144665 182.83719337 C-270.19107238 139.93109097 -270.17317826 97.02499434 -270.15112305 54.11889648 C-252.66112305 54.11889648 -235.17112305 54.11889648 -217.15112305 54.11889648 C-217.15112305 45.86889648 -217.15112305 37.61889648 -217.15112305 29.11889648 C-190.09112305 29.11889648 -163.03112305 29.11889648 -135.15112305 29.11889648 C-135.15112305 19.87889648 -135.15112305 10.63889648 -135.15112305 1.11889648 C-118.87650077 0.9874917 -102.6018726 0.85690357 -86.32723236 0.72774506 C-78.76787397 0.66772743 -71.20851866 0.60736488 -63.64916992 0.54614258 C-57.04794066 0.4926809 -50.44670624 0.43991498 -43.84546518 0.38792944 C-40.36154682 0.36047034 -36.87763167 0.33270044 -33.39372253 0.30409241 C-27.01494574 0.25195511 -20.63622162 0.20444454 -14.25732422 0.16943359 C-9.50402461 0.14222494 -4.75264984 0.08235488 0 0 Z " fill="#17335D" transform="translate(701.151123046875,196.881103515625)"/>
<path d="M0 0 C0 74.25 0 148.5 0 225 C0.66 225 1.32 225 2 225 C2 264.93 2 304.86 2 346 C10.25 346.33 18.5 346.66 27 347 C27.33 266.48 27.66 185.96 28 103 C36.25 103 44.5 103 53 103 C53 94.42 53 85.84 53 77 C97.22 77 141.44 77 187 77 C187 68.09 187 59.18 187 50 C193.64465472 49.85498805 200.28930558 49.71179763 206.93408203 49.57275391 C209.18149888 49.52523509 211.42889606 49.47677407 213.67626953 49.42724609 C216.95860783 49.35509061 220.24100868 49.28664936 223.5234375 49.21875 C224.48293304 49.19687622 225.44242859 49.17500244 226.43099976 49.15246582 C238.62400746 48.90812633 250.79689315 49 263 49 C263.495 183.145 263.495 183.145 264 320 C248.64799704 320 233.30922085 319.98937964 217.9609375 319.78125 C216.2044798 319.75868467 214.44802019 319.73626794 212.69155884 319.71398926 C208.17093951 319.65626776 203.65034826 319.59659252 199.12976074 319.53643799 C194.47584602 319.47487936 189.82190635 319.41526825 185.16796875 319.35546875 C176.11195419 319.23883119 167.05597144 319.11993819 158 319 C158 310.75 158 302.5 158 294 C184.07 293.67 210.14 293.34 237 293 C237 222.05 237 151.1 237 78 C220.83 78 204.66 78 188 78 C188 86.25 188 94.5 188 103 C152.69 103 117.38 103 81 103 C81 242.92 81 382.84 81 527 C43 528 43 528 28 528 C28 536.58 28 545.16 28 554 C19.42 554.33 10.84 554.66 2 555 C1.67 562.92 1.34 570.84 1 579 C-43.55 579 -88.1 579 -134 579 C-134 570.75 -134 562.5 -134 554 C-89.45 554 -44.9 554 1 554 C1 544.76 1 535.52 1 526 C9.58 526 18.16 526 27 526 C27 482.77 27 439.54 27 395 C18.42 395 9.84 395 1 395 C1 386.09 1 377.18 1 368 C-43.55 368 -88.1 368 -134 368 C-134 343 -134 343 -133 342 C-97.36 342 -61.72 342 -25 342 C-25 229.47 -25 116.94 -25 1 C-16.90901413 -1.02274647 -8.33999734 0 0 0 Z " fill="#061838" transform="translate(430,250)"/>
<path d="M0 0 C44.55 0 89.1 0 135 0 C135 8.91 135 17.82 135 27 C143.58 27 152.16 27 161 27 C161 70.23 161 113.46 161 158 C152.42 158 143.84 158 135 158 C135 167.24 135 176.48 135 186 C90.45 186 45.9 186 0 186 C-0.33 177.09 -0.66 168.18 -1 159 C-9.25 158.67 -17.5 158.34 -26 158 C-26 114.77 -26 71.54 -26 27 C-17.42 27 -8.84 27 0 27 C0 18.09 0 9.18 0 0 Z " fill="#E76C00" transform="translate(296,618)"/>
<path d="M0 0 C59.4 0 118.8 0 180 0 C180.33 172.92 180.66 345.84 181 524 C172.42 524 163.84 524 155 524 C155 532.58 155 541.16 155 550 C146.42 550 137.84 550 129 550 C129 558.91 129 567.82 129 577 C115.21385834 577.022557 101.42772886 577.04091857 87.64157295 577.05181217 C81.24069663 577.0570395 74.83983355 577.06413446 68.43896484 577.07543945 C62.2663243 577.08627362 56.09369652 577.09227797 49.92104721 577.09487724 C47.56143874 577.09673053 45.201831 577.10034931 42.84222794 577.10573006 C39.54730956 577.11294748 36.25244449 577.11399064 32.95751953 577.11352539 C31.9735318 577.11712067 30.98954407 577.12071594 29.97573853 577.12442017 C29.08108887 577.1230455 28.18643921 577.12167084 27.26467896 577.12025452 C26.09492366 577.12163721 26.09492366 577.12163721 24.90153694 577.12304783 C23 577 23 577 21 576 C20.97107143 572.04168191 20.95322573 568.08339083 20.9375 564.125 C20.92912109 562.99707031 20.92074219 561.86914062 20.91210938 560.70703125 C20.90888672 559.63066406 20.90566406 558.55429687 20.90234375 557.4453125 C20.89710693 556.45031738 20.89187012 555.45532227 20.88647461 554.43017578 C21 552 21 552 22 550 C14.41 550 6.82 550 -1 550 C-1 541.75 -1 533.5 -1 525 C-9.58 525 -18.16 525 -27 525 C-27 492 -27 459 -27 425 C-18.42 425 -9.84 425 -1 425 C-1 449.75 -1 474.5 -1 500 C0.32 499.34 1.64 498.68 3 498 C5.5 497.875 5.5 497.875 8 498 C9.32 498 10.64 498 12 498 C15.63 498.33 19.26 498.66 23 499 C23 515.83 23 532.66 23 550 C57.65 550 92.3 550 128 550 C127.67 541.42 127.34 532.84 127 524 C135.58 524 144.16 524 153 524 C152.92170524 476.74111427 152.84233919 429.48223054 152.7563324 382.22335815 C152.75506072 381.52440445 152.75378904 380.82545074 152.75247882 380.10531662 C152.72483731 364.91678553 152.69697433 349.72825486 152.66888306 334.5397246 C152.65510934 327.09175007 152.64138458 319.64377545 152.62768555 312.19580078 C152.62563942 311.08403009 152.62563942 311.08403009 152.62355196 309.94979939 C152.57932586 285.9068857 152.53833575 261.86396781 152.49901587 237.82104563 C152.45860746 213.12293151 152.41495014 188.42482522 152.36717889 163.72672419 C152.3604399 160.24182615 152.35373822 156.75692803 152.34705925 153.27202988 C152.34574352 152.58612208 152.34442779 151.90021429 152.3430722 151.19352141 C152.32195098 140.1326251 152.30427558 129.07172581 152.28787469 118.01082159 C152.27133091 106.90280206 152.2511096 95.79479298 152.22733159 84.68678631 C152.21454681 78.6633965 152.20341709 72.64001504 152.19658089 66.6166153 C152.19029704 61.1108709 152.17949154 55.60515527 152.1649667 50.09942661 C152.16051061 48.09940738 152.15776718 46.09938351 152.15683801 44.09935953 C152.15534135 41.39697637 152.14781173 38.69467791 152.1386652 35.99231148 C152.1401992 34.80655951 152.1401992 34.80655951 152.14176419 33.59685296 C152.20166895 29.66970509 152.20166895 29.66970509 151 26 C150.36759903 26.00092179 149.73519806 26.00184359 149.08363342 26.00279331 C133.578178 26.02503701 118.07272825 26.04150232 102.56726074 26.05181217 C95.06843487 26.05693255 87.56961974 26.0638923 80.07080078 26.07543945 C73.5223035 26.08551829 66.97381401 26.09188423 60.42530918 26.09408849 C56.96933079 26.0953736 53.51337469 26.09831533 50.05740356 26.10573006 C33.3358149 26.13755874 16.70329544 25.81541425 0 25 C0 16.75 0 8.5 0 0 Z " fill="#102242" transform="translate(567,172)"/>
<path d="M0 0 C8.91 0 17.82 0 27 0 C27 59.07 27 118.14 27 179 C18.42 179 9.84 179 1 179 C1.33 179.66 1.66 180.32 2 181 C2 188.92 2 196.84 2 205 C-32.65 205 -67.3 205 -103 205 C-103 188.17 -103 171.34 -103 154 C-110.76451789 153.37948425 -110.76451789 153.37948425 -118 155 C-118 154.34 -118 153.68 -118 153 C-122.455 153.99 -122.455 153.99 -127 155 C-128.70046414 151.59907172 -128.14122663 147.72146656 -128.1328125 143.98046875 C-128.13413177 143.06172974 -128.13545105 142.14299072 -128.1368103 141.19641113 C-128.13873361 138.19340693 -128.13237932 135.19049478 -128.125 132.1875 C-128.12411377 131.17378326 -128.12322754 130.16006653 -128.12231445 129.1156311 C-128.10507498 112.38986065 -127.76758874 95.70876209 -127 79 C-119.74 79 -112.48 79 -105 79 C-105 70.42 -105 61.84 -105 53 C-70.02 53 -35.04 53 1 53 C0.67 42.44 0.34 31.88 0 21 C-0.03499956 14.0000875 -0.0514692 6.99981078 0 0 Z " fill="#163158" transform="translate(693,517)"/>
<path d="M0 0 C34.32 0 68.64 0 104 0 C104 173.58 104 347.16 104 526 C96.08 526 88.16 526 80 526 C80 361.66 80 197.32 80 28 C53.6 28 27.2 28 0 28 C0 18.76 0 9.52 0 0 Z " fill="#000D26" transform="translate(667,144)"/>
<path d="M0 0 C0.33 89.43 0.66 178.86 1 271 C-14.35200296 271 -29.69077915 270.98937964 -45.0390625 270.78125 C-46.7955202 270.75868467 -48.55197981 270.73626794 -50.30844116 270.71398926 C-54.82906049 270.65626776 -59.34965174 270.59659252 -63.87023926 270.53643799 C-68.52415398 270.47487936 -73.17809365 270.41526825 -77.83203125 270.35546875 C-86.88804581 270.23883119 -95.94402856 270.11993819 -105 270 C-105 261.75 -105 253.5 -105 245 C-78.93 244.67 -52.86 244.34 -26 244 C-26 173.05 -26 102.1 -26 29 C-42.17 29 -58.34 29 -75 29 C-75 37.25 -75 45.5 -75 54 C-110.31 54 -145.62 54 -182 54 C-182 45.42 -182 36.84 -182 28 C-147.02 28 -112.04 28 -76 28 C-76 19.09 -76 10.18 -76 1 C-69.35534528 0.85498805 -62.71069442 0.71179763 -56.06591797 0.57275391 C-53.81850112 0.52523509 -51.57110394 0.47677407 -49.32373047 0.42724609 C-46.04139217 0.35509061 -42.75899132 0.28664936 -39.4765625 0.21875 C-38.51706696 0.19687622 -37.55757141 0.17500244 -36.56900024 0.15246582 C-24.37599254 -0.09187367 -12.20310685 0 0 0 Z " fill="#000E2A" transform="translate(693,299)"/>
<path d="M0 0 C0 74.25 0 148.5 0 225 C0.66 225 1.32 225 2 225 C2.03138632 235.52082167 2.05124505 246.04163867 2.0625 256.5625 C2.06378403 257.75407715 2.06378403 257.75407715 2.06509399 258.96972656 C2.09959259 295.3229664 1.58629088 331.64996513 1 368 C-43.55 368 -88.1 368 -134 368 C-134 343 -134 343 -133 342 C-97.36 342 -61.72 342 -25 342 C-25 229.47 -25 116.94 -25 1 C-16.90901413 -1.02274647 -8.33999734 0 0 0 Z " fill="#001133" transform="translate(430,250)"/>
<path d="M0 0 C17.16 0 34.32 0 52 0 C52 8.58 52 17.16 52 26 C43.75 26 35.5 26 27 26 C27.00222061 29.69926193 27.00444122 33.39852386 27.00672913 37.20988464 C27.02666784 71.20663078 27.04157646 105.20337618 27.05106533 139.2001269 C27.0523159 143.6644238 27.05361023 148.12872069 27.05493164 152.59301758 C27.05519395 153.48170288 27.05545626 154.37038817 27.05572652 155.28600333 C27.06006667 169.63720712 27.06794505 183.98840687 27.0771528 198.33960827 C27.08653548 213.08750127 27.09206535 227.83539216 27.09408849 242.58328801 C27.09545417 251.66862733 27.09975263 260.75395522 27.10791647 269.83929101 C27.11324096 276.08660814 27.11479146 282.33391943 27.11350138 288.58123865 C27.11286683 292.17464587 27.11377368 295.76803324 27.11920547 299.36143684 C27.14163536 314.93934798 26.94214851 330.44809193 26 346 C21.85417246 346.0276887 17.70839092 346.04675326 13.5625 346.0625 C12.37849609 346.07087891 11.19449219 346.07925781 9.97460938 346.08789062 C8.84990234 346.09111328 7.72519531 346.09433594 6.56640625 346.09765625 C5.00321655 346.10551147 5.00321655 346.10551147 3.40844727 346.11352539 C1 346 1 346 0 345 C-0.09754084 343.16511937 -0.12371382 341.32643059 -0.12304783 339.48895931 C-0.12503888 338.28519679 -0.12702993 337.08143427 -0.12908131 335.84119409 C-0.12622772 334.48819964 -0.12328211 333.13520538 -0.12025452 331.7822113 C-0.12069009 330.35829193 -0.12156475 328.93437263 -0.12284368 327.51045376 C-0.12509131 323.57916001 -0.12106372 319.64789323 -0.11606562 315.71660292 C-0.11176513 311.48413378 -0.11320726 307.25166627 -0.1139679 303.01919556 C-0.11449339 295.68001886 -0.11134397 288.34085103 -0.10573006 281.00167656 C-0.09761844 270.39033604 -0.09500019 259.77899983 -0.09374207 249.16765655 C-0.09155101 231.95332134 -0.08488948 214.73899085 -0.07543945 197.5246582 C-0.06626671 180.79809594 -0.05918521 164.07153497 -0.05493164 147.3449707 C-0.05466892 146.31471995 -0.05440619 145.2844692 -0.05413551 144.22299873 C-0.05283051 139.05476479 -0.0515668 133.88653084 -0.05032361 128.71829689 C-0.03994933 85.81219448 -0.02205522 42.90609785 0 0 Z " fill="#1A3B6A" transform="translate(431,251)"/>
<path d="M0 0 C8.58 0 17.16 0 26 0 C26 24.75 26 49.5 26 75 C27.98 74.01 27.98 74.01 30 73 C32.5 72.875 32.5 72.875 35 73 C36.32 73 37.64 73 39 73 C42.63 73.33 46.26 73.66 50 74 C50 90.83 50 107.66 50 125 C84.65 125 119.3 125 155 125 C154.67 116.42 154.34 107.84 154 99 C162.58 99 171.16 99 180 99 C180 90.42 180 81.84 180 73 C184.47920597 72.97317841 188.95825351 72.95324823 193.4375 72.9375 C194.71689453 72.92912109 195.99628906 72.92074219 197.31445312 72.91210938 C198.52939453 72.90888672 199.74433594 72.90566406 200.99609375 72.90234375 C202.12200928 72.89710693 203.2479248 72.89187012 204.40795898 72.88647461 C207 73 207 73 208 74 C208.08737645 75.85369611 208.10698153 77.71067541 208.09765625 79.56640625 C208.09515869 80.57904541 208.09266113 81.59168457 208.09008789 82.63500977 C208.08098389 83.93108154 208.07187988 85.22715332 208.0625 86.5625 C208.041875 90.666875 208.02125 94.77125 208 99 C199.42 99 190.84 99 182 99 C182 107.58 182 116.16 182 125 C173.42 125 164.84 125 156 125 C156 133.91 156 142.82 156 152 C142.21385834 152.022557 128.42772886 152.04091857 114.64157295 152.05181217 C108.24069663 152.0570395 101.83983355 152.06413446 95.43896484 152.07543945 C89.2663243 152.08627362 83.09369652 152.09227797 76.92104721 152.09487724 C74.56143874 152.09673053 72.201831 152.10034931 69.84222794 152.10573006 C66.54730956 152.11294748 63.25244449 152.11399064 59.95751953 152.11352539 C58.9735318 152.11712067 57.98954407 152.12071594 56.97573853 152.12442017 C55.63376404 152.12235817 55.63376404 152.12235817 54.26467896 152.12025452 C53.09492366 152.12163721 53.09492366 152.12163721 51.90153694 152.12304783 C50 152 50 152 48 151 C47.97107143 147.04168191 47.95322573 143.08339083 47.9375 139.125 C47.92912109 137.99707031 47.92074219 136.86914062 47.91210938 135.70703125 C47.90888672 134.63066406 47.90566406 133.55429687 47.90234375 132.4453125 C47.89710693 131.45031738 47.89187012 130.45532227 47.88647461 129.43017578 C48 127 48 127 49 125 C41.41 125 33.82 125 26 125 C26 116.75 26 108.5 26 100 C17.42 100 8.84 100 0 100 C0 67 0 34 0 0 Z " fill="#000F2D" transform="translate(540,597)"/>
<path d="M0 0 C8.58 0 17.16 0 26 0 C26 43.23 26 86.46 26 131 C17.42 131 8.84 131 0 131 C0 140.24 0 149.48 0 159 C-44.55 159 -89.1 159 -135 159 C-135 133 -135 133 -134 132 C-132.59588683 131.9045307 -131.18700191 131.87811471 -129.77964783 131.87974548 C-128.86954453 131.87837082 -127.95944122 131.87699615 -127.02175903 131.87557983 C-126.01547455 131.87917511 -125.00919006 131.88277039 -123.97241211 131.88647461 C-122.91888046 131.88632858 -121.86534882 131.88618256 -120.77989197 131.8860321 C-117.279022 131.88673174 -113.77820448 131.89452652 -110.27734375 131.90234375 C-107.85738657 131.90420775 -105.43742901 131.90563174 -103.01747131 131.90663147 C-96.63384976 131.91045808 -90.25025079 131.92028959 -83.86663818 131.93133545 C-77.35836086 131.94154649 -70.8500799 131.94612843 -64.34179688 131.95117188 C-51.56118637 131.96191173 -38.78059859 131.97950968 -26 132 C-26 122.76 -26 113.52 -26 104 C-17.42 104 -8.84 104 0 104 C0 69.68 0 35.36 0 0 Z " fill="#9D1C00" transform="translate(431,645)"/>
<path d="M0 0 C44.55 0 89.1 0 135 0 C135 43.23 135 86.46 135 131 C125.76 131 116.52 131 107 131 C107 130.67 107 130.34 107 130 C115.91 130 124.82 130 134 130 C134 87.43 134 44.86 134 1 C126.41 1 118.82 1 111 1 C111 9.91 111 18.82 111 28 C92.85 28 74.7 28 56 28 C56 36.91 56 45.82 56 55 C46.43 55 36.86 55 27 55 C27 63.25 27 71.5 27 80 C18.42 80 9.84 80 1 80 C1 88.25 1 96.5 1 105 C0.67 105 0.34 105 0 105 C0 70.35 0 35.7 0 0 Z " fill="#ED7A01" transform="translate(296,618)"/>
<path d="M0 0 C0.33 0.99 0.66 1.98 1 3 C1.99966797 2.76603516 1.99966797 2.76603516 3.01953125 2.52734375 C11.40293128 0.75686346 19.17660586 0.08830293 27 4 C27 65.71 27 127.42 27 191 C18.09 191 9.18 191 0 191 C0 127.97 0 64.94 0 0 Z " fill="#1C3F71" transform="translate(693,326)"/>
<path d="M0 0 C17.16 0 34.32 0 52 0 C52 8.58 52 17.16 52 26 C43.75 26 35.5 26 27 26 C27 70.88 27 115.76 27 162 C26.67 162 26.34 162 26 162 C26 151.77 26 141.54 26 131 C17.81215868 130.79111775 17.81215868 130.79111775 13 131.5625 C9 132 9 132 0 131 C0 87.77 0 44.54 0 0 Z " fill="#295793" transform="translate(431,251)"/>
<path d="M0 0 C8.25 0 16.5 0 25 0 C25 43.23 25 86.46 25 131 C33.25 131 41.5 131 50 131 C51 132 51 132 51.11352539 134.59204102 C51.10828857 135.71795654 51.10305176 136.84387207 51.09765625 138.00390625 C51.09443359 139.21884766 51.09121094 140.43378906 51.08789062 141.68554688 C51.07532227 143.60463867 51.07532227 143.60463867 51.0625 145.5625 C51.05798828 146.84576172 51.05347656 148.12902344 51.04882812 149.45117188 C51.03699555 152.6341342 51.01905944 155.81707274 51 159 C42.42 159 33.84 159 25 159 C25 150.09 25 141.18 25 132 C16.75 132 8.5 132 0 132 C0 88.44 0 44.88 0 0 Z " fill="#000F2F" transform="translate(245,645)"/>
<path d="M0 0 C44.22 0 88.44 0 134 0 C134 9.24 134 18.48 134 28 C119.80548504 28.15297982 105.61094337 28.30173877 91.4163065 28.4429636 C84.82592753 28.50870334 78.23557893 28.57632936 71.64526367 28.64819336 C65.29112004 28.71741384 58.93694443 28.78177473 52.58271599 28.84269524 C50.15248753 28.86686265 47.72227616 28.89281289 45.29208565 28.92053413 C41.90121257 28.95891614 38.51033535 28.99108885 35.11938477 29.02172852 C34.10374954 29.03467453 33.08811432 29.04762054 32.04170227 29.06095886 C31.12318481 29.06799835 30.20466736 29.07503784 29.25831604 29.08229065 C28.45543435 29.09058679 27.65255266 29.09888292 26.82534122 29.10743046 C25 29 25 29 24 28 C22.22130274 27.84235595 20.43681524 27.74899323 18.65234375 27.68359375 C17.19429321 27.62643188 17.19429321 27.62643188 15.70678711 27.56811523 C14.46292236 27.52501221 13.21905762 27.48190918 11.9375 27.4375 C7.998125 27.293125 4.05875 27.14875 0 27 C0 18.09 0 9.18 0 0 Z " fill="#DE5F00" transform="translate(271,749)"/>
<path d="M0 0 C26.73 0 53.46 0 81 0 C81 8.91 81 17.82 81 27 C54.93 27 28.86 27 2 27 C2 43.5 2 60 2 77 C-5.92 77 -13.84 77 -22 77 C-22 60.17 -22 43.34 -22 26 C-14.74 26 -7.48 26 0 26 C0 17.42 0 8.84 0 0 Z " fill="#295897" transform="translate(588,570)"/>
<path d="M0 0 C34.32 0 68.64 0 104 0 C107.87871686 7.75743371 105 17.32692545 105 26 C70.35 26 35.7 26 0 26 C0 17.42 0 8.84 0 0 Z " fill="#0F2140" transform="translate(590,696)"/>
<path d="M0 0 C33 0 66 0 100 0 C100 8.58 100 17.16 100 26 C90.50532869 26.022844 81.01067646 26.04108121 71.51598358 26.05181217 C67.10439511 26.05696964 62.69282685 26.06393261 58.28125 26.07543945 C38.81786023 26.1249151 19.44331842 26.01200879 0 25 C0 16.75 0 8.5 0 0 Z " fill="#001236" transform="translate(567,172)"/>
<path d="M0 0 C36.3 0 72.6 0 110 0 C110 0.33 110 0.66 110 1 C74.03 1 38.06 1 1 1 C1 9.58 1 18.16 1 27 C18.82 27 36.64 27 55 27 C55.33 36.24 55.66 45.48 56 55 C46.43 55 36.86 55 27 55 C27 63.25 27 71.5 27 80 C18.42 80 9.84 80 1 80 C1 88.25 1 96.5 1 105 C0.67 105 0.34 105 0 105 C0 70.35 0 35.7 0 0 Z " fill="#F5A118" transform="translate(296,618)"/>
<path d="M0 0 C26.73 0 53.46 0 81 0 C81 8.25 81 16.5 81 25 C54.27 25 27.54 25 0 25 C0 16.75 0 8.5 0 0 Z " fill="#28548E" transform="translate(485,226)"/>
<path d="M0 0 C26.73 0 53.46 0 81 0 C81 8.58 81 17.16 81 26 C78.27411621 25.75443359 78.27411621 25.75443359 75.49316406 25.50390625 C68.40554318 24.96111631 61.35123977 24.88240628 54.24794769 24.92483521 C52.05389952 24.93782853 49.85991307 24.94416953 47.66583252 24.94897461 C43.02719323 24.96026509 38.38860685 24.9795799 33.75 25 C28.32829434 25.02363247 22.90661579 25.04394334 17.48487091 25.05593872 C15.32156055 25.06242597 13.15833751 25.07491869 10.99505615 25.08764648 C9.04602386 25.09260132 9.04602386 25.09260132 7.05761719 25.09765625 C5.90880066 25.10289307 4.75998413 25.10812988 3.57635498 25.11352539 C1 25 1 25 0 24 C0 16.08 0 8.16 0 0 Z " fill="#000B1F" transform="translate(484,200)"/>
<path d="M0 0 C8.58 0 17.16 0 26 0 C26 17.49 26 34.98 26 53 C25.67 53 25.34 53 25 53 C24.67 61.25 24.34 69.5 24 78 C22.68 77.34 21.36 76.68 20 76 C20.99 75.01 20.99 75.01 22 74 C22.46006346 71.79749008 22.46006346 71.79749008 22.625 69.375 C22.69976562 68.55773437 22.77453125 67.74046875 22.8515625 66.8984375 C22.90054687 66.27195312 22.94953125 65.64546875 23 65 C22.34 65 21.68 65 21 65 C21 64.34 21 63.68 21 63 C19.515 63.495 19.515 63.495 18 64 C17.67 65.65 17.34 67.3 17 69 C16.030625 69.28875 15.06125 69.5775 14.0625 69.875 C10.89335797 70.64214682 10.89335797 70.64214682 10 73 C10 72.34 10 71.68 10 71 C9.34 71 8.68 71 8 71 C8 71.99 8 72.98 8 74 C7.34 74 6.68 74 6 74 C6 73.34 6 72.68 6 72 C4.02 72.495 4.02 72.495 2 73 C2 73.928125 2 74.85625 2 75.8125 C2 77.875 2 79.9375 2 82 C2.01120845 83.35156683 2.02298144 84.70312903 2.03515625 86.0546875 C2.04445161 87.6614573 2.0535593 89.26822819 2.0625 90.875 C2.07087891 91.67808594 2.07925781 92.48117187 2.08789062 93.30859375 C2.10451308 97.34452614 2.01265813 101.06099907 1 105 C0.67 105 0.34 105 0 105 C0 70.35 0 35.7 0 0 Z " fill="#9A1A00" transform="translate(431,645)"/>
<path d="M0 0 C0.93147858 0.00359528 1.86295715 0.00719055 2.82266235 0.01089478 C3.79816544 0.01074875 4.77366852 0.01060272 5.7787323 0.01045227 C9.01987899 0.01115184 12.260969 0.01894626 15.50210571 0.02676392 C17.74270089 0.02862794 19.98329648 0.03005192 22.22389221 0.03105164 C28.13404456 0.03487804 34.04417251 0.04470936 39.95431519 0.05575562 C45.98000763 0.06596711 52.005704 0.07054869 58.03140259 0.07559204 C69.86409563 0.08633152 81.69677052 0.10340941 93.52944946 0.12442017 C93.52944946 0.45442017 93.52944946 0.78442017 93.52944946 1.12442017 C77.02944946 1.12442017 60.52944946 1.12442017 43.52944946 1.12442017 C43.52944946 10.03442017 43.52944946 18.94442017 43.52944946 28.12442017 C27.02944946 28.12442017 10.52944946 28.12442017 -6.47055054 28.12442017 C-7.79469143 25.47613838 -7.60012096 23.45761905 -7.60336304 20.49551392 C-7.6046521 19.37854126 -7.60594116 18.2615686 -7.60726929 17.11074829 C-7.6034021 15.93963501 -7.59953491 14.76852173 -7.59555054 13.56192017 C-7.59941772 12.3869397 -7.60328491 11.21195923 -7.60726929 10.00137329 C-7.60598022 8.8856897 -7.60469116 7.7700061 -7.60336304 6.62051392 C-7.60223511 5.59111694 -7.60110718 4.56171997 -7.59994507 3.50112915 C-7.33601389 -1.34673878 -4.10781096 0.0067002 0 0 Z " fill="#112648" transform="translate(573.4705505371094,298.8755798339844)"/>
<path d="M0 0 C17.16 0 34.32 0 52 0 C53.85560926 7.42243703 54.56095138 11.78059986 53 19 C53 19.99 53 20.98 53 22 C52.34 22.99 51.68 23.98 51 25 C52.98 25 54.96 25 57 25 C56.505 26.485 56.505 26.485 56 28 C51.60364953 28.16726689 47.20712239 28.32786093 42.81030273 28.48217773 C41.31349062 28.53566434 39.81674337 28.5909987 38.32006836 28.64819336 C36.17315668 28.72991956 34.02610207 28.8050746 31.87890625 28.87890625 C29.93866577 28.94960327 29.93866577 28.94960327 27.95922852 29.02172852 C25 29 25 29 24 28 C22.22130274 27.84235595 20.43681524 27.74899323 18.65234375 27.68359375 C17.19429321 27.62643188 17.19429321 27.62643188 15.70678711 27.56811523 C14.46292236 27.52501221 13.21905762 27.48190918 11.9375 27.4375 C7.998125 27.293125 4.05875 27.14875 0 27 C0 18.09 0 9.18 0 0 Z " fill="#DD5E00" transform="translate(271,749)"/>
<path d="M0 0 C16.83 0 33.66 0 51 0 C55.02768199 8.05536398 52 17.99382928 52 27 C34.84 27 17.68 27 0 27 C0 18.09 0 9.18 0 0 Z " fill="#2E5F9F" transform="translate(567,199)"/>
<path d="M0 0 C2.97 0.495 2.97 0.495 6 1 C6 1.99 6 2.98 6 4 C6.66 2.68 7.32 1.36 8 0 C8.99 0 9.98 0 11 0 C11 9.33333333 11 18.66666667 11 28 C11.16022681 29.63886441 11.3256907 31.27721849 11.49389648 32.9152832 C12.03133046 38.74316245 12.12873706 44.50642342 12.09765625 50.35546875 C12.0962413 51.38311844 12.09482635 52.41076813 12.09336853 53.46955872 C12.08783066 56.70890379 12.0752903 59.94817629 12.0625 63.1875 C12.05747695 65.4016917 12.05291546 67.6158845 12.04882812 69.83007812 C12.03788169 75.22007628 12.0212069 80.61003295 12 86 C11.67 86 11.34 86 11 86 C11 75.77 11 65.54 11 55 C5.48263466 55 1.28150925 55.08627097 -3.953125 55.84594727 C-6.29190516 56.02196948 -8.42395979 55.81596087 -10.75 55.52734375 C-11.54921875 55.4305835 -12.3484375 55.33382324 -13.171875 55.23413086 C-14.07679688 55.11823608 -14.07679688 55.11823608 -15 55 C-15.02482932 49.02262673 -15.04292109 43.04528389 -15.05493164 37.06787109 C-15.05994189 35.03694129 -15.06675191 33.00601506 -15.07543945 30.97509766 C-15.08765047 28.04588943 -15.09326153 25.11672915 -15.09765625 22.1875 C-15.10281754 21.28821777 -15.10797882 20.38893555 -15.11329651 19.46240234 C-15.11375728 14.21430933 -14.76270154 9.19375999 -14 4 C-8.06 4.99 -8.06 4.99 -2 6 C-2 5.01 -2 4.02 -2 3 C-1.34 3 -0.68 3 0 3 C0 2.01 0 1.02 0 0 Z " fill="#295692" transform="translate(446,327)"/>
<path d="M0 0 C16.17 0 32.34 0 49 0 C49 1.65 49 3.3 49 5 C49.66 5.33 50.32 5.66 51 6 C51 6.66 51 7.32 51 8 C50.34 8 49.68 8 49 8 C49 8.66 49 9.32 49 10 C49.99 10.33 50.98 10.66 52 11 C51.01 11 50.02 11 49 11 C49 16.28 49 21.56 49 27 C33.16 27 17.32 27 1 27 C-0.76625539 18.16872303 0 9.00617072 0 0 Z " fill="#1E4379" transform="translate(618,199)"/>
<path d="M0 0 C17.49 0 34.98 0 53 0 C53 8.25 53 16.5 53 25 C50.628125 24.835 48.25625 24.67 45.8125 24.5 C35.85403762 23.87753606 25.90279348 23.94024506 15.92895508 24.03710938 C14.73036865 24.04548828 13.53178223 24.05386719 12.296875 24.0625 C11.22791992 24.07410156 10.15896484 24.08570313 9.05761719 24.09765625 C6 24 6 24 0 23 C0 15.41 0 7.82 0 0 Z " fill="#000F2B" transform="translate(431,226)"/>
<path d="M0 0 C0 17.16 0 34.32 0 52 C-7.59 52 -15.18 52 -23 52 C-23 35.17 -23 18.34 -23 1 C-1 0 -1 0 0 0 Z " fill="#1C4174" transform="translate(589,595)"/>
<path d="M0 0 C1.4800841 0.11362262 2.95910074 0.24122908 4.4375 0.375 C5.26121094 0.44460938 6.08492188 0.51421875 6.93359375 0.5859375 C7.61550781 0.72257812 8.29742187 0.85921875 9 1 C9.33 1.66 9.66 2.32 10 3 C9.34 3 8.68 3 8 3 C8 4.65 8 6.3 8 8 C8.66 8 9.32 8 10 8 C10.33 6.68 10.66 5.36 11 4 C11.66 4 12.32 4 13 4 C13 4.99 13 5.98 13 7 C12.34 7 11.68 7 11 7 C11 8.32 11 9.64 11 11 C11.99 11.33 12.98 11.66 14 12 C14 40.71 14 69.42 14 99 C13.67 99 13.34 99 13 99 C13 95.37 13 91.74 13 88 C12.34 87.67 11.68 87.34 11 87 C11.33 86.67 11.66 86.34 12 86 C12.07472071 84.58124059 12.08324462 83.15885546 12.0625 81.73828125 C12.05476563 80.86623047 12.04703125 79.99417969 12.0390625 79.09570312 C12.0132949 77.25976176 11.98725913 75.42382413 11.9609375 73.58789062 C11.9199354 68.93073506 12.02715982 64.58298927 13 60 C12.01 60 11.02 60 10 60 C10.33 60.99 10.66 61.98 11 63 C9.68 63.99 8.36 64.98 7 66 C6.34 65.34 5.68 64.68 5 64 C5.99 63.01 6.98 62.02 8 61 C6.02 60.67 4.04 60.34 2 60 C2 60.99 2 61.98 2 63 C1.34 63 0.68 63 0 63 C0 63.99 0 64.98 0 66 C-3.63 65.67 -7.26 65.34 -11 65 C-11.33 67.31 -11.66 69.62 -12 72 C-12.33 72 -12.66 72 -13 72 C-13 49.23 -13 26.46 -13 3 C-12.67 3 -12.34 3 -12 3 C-12 16.2 -12 29.4 -12 43 C-10.68 42.34 -9.36 41.68 -8 41 C-7.67 40.01 -7.34 39.02 -7 38 C-6.01 38.33 -5.02 38.66 -4 39 C-4 39.66 -4 40.32 -4 41 C-2.35 41.33 -0.7 41.66 1 42 C1 40.35 1 38.7 1 37 C-0.32 36.34 -1.64 35.68 -3 35 C-3 34.34 -3 33.68 -3 33 C-4.32 32.67 -5.64 32.34 -7 32 C-3.96474514 29.97649676 -2.80573798 29.67875982 0.6875 29.375 C1.49574219 29.30023438 2.30398438 29.22546875 3.13671875 29.1484375 C4.05904297 29.07496094 4.05904297 29.07496094 5 29 C4.34 29 3.68 29 3 29 C2.34 29 1.68 29 1 29 C1.66 27.02 2.32 25.04 3 23 C3.99 23 4.98 23 6 23 C6 22.34 6 21.68 6 21 C4.02 21.33 2.04 21.66 0 22 C-0.33 23.32 -0.66 24.64 -1 26 C-1.66 25.67 -2.32 25.34 -3 25 C-5.09821215 25.39938767 -5.09821215 25.39938767 -7 26 C-7 25.34 -7 24.68 -7 24 C-1.76190476 19 -1.76190476 19 3 19 C3 18.34 3 17.68 3 17 C1.68 16.67 0.36 16.34 -1 16 C-1 15.34 -1 14.68 -1 14 C-1.66 14 -2.32 14 -3 14 C-3 13.01 -3 12.02 -3 11 C-1 12 -1 12 1 15 C4.06556598 15.73343428 4.06556598 15.73343428 7 16 C6.34 16.33 5.68 16.66 5 17 C5 17.66 5 18.32 5 19 C5.99 19 6.98 19 8 19 C8.66 17.68 9.32 16.36 10 15 C10.66 15 11.32 15 12 15 C12 14.34 12 13.68 12 13 C10.02 13.66 8.04 14.32 6 15 C6 14.34 6 13.68 6 13 C5.34 13 4.68 13 4 13 C3.67 13.66 3.34 14.32 3 15 C3 14.34 3 13.68 3 13 C2.34 13 1.68 13 1 13 C0.20046862 9.71303767 -0.09658936 8.28976808 1 5 C0.01 5 -0.98 5 -2 5 C-2 4.01 -2 3.02 -2 2 C-1.34 2 -0.68 2 0 2 C0 1.34 0 0.68 0 0 Z " fill="#2F5FA0" transform="translate(444,267)"/>
<path d="M0 0 C8.58 0 17.16 0 26 0 C26 8.58 26 17.16 26 26 C27.918125 25.835 29.83625 25.67 31.8125 25.5 C37.89975468 25.02610188 43.89656779 24.9186209 50 25 C50 18.4 50 11.8 50 5 C50.66 5 51.32 5 52 5 C52 12.26 52 19.52 52 27 C43.42 27 34.84 27 26 27 C26 35.91 26 44.82 26 54 C25.67 54 25.34 54 25 54 C25 45.09 25 36.18 25 27 C17.08 27 9.16 27 1 27 C-0.3308911 24.33821779 -0.11268993 22.31260604 -0.09765625 19.3359375 C-0.09515869 18.3257959 -0.09266113 17.3156543 -0.09008789 16.27490234 C-0.08098389 14.98793457 -0.07187988 13.7009668 -0.0625 12.375 C-0.041875 8.29125 -0.02125 4.2075 0 0 Z " fill="#B83600" transform="translate(405,749)"/>
<path d="M0 0 C1.9906444 0.14986411 3.98535391 0.24828038 5.98046875 0.31640625 C7.14384766 0.35830078 8.30722656 0.40019531 9.50585938 0.44335938 C10.72080078 0.48267578 11.93574219 0.52199219 13.1875 0.5625 C14.41404297 0.60568359 15.64058594 0.64886719 16.90429688 0.69335938 C19.93608381 0.7995309 22.96795315 0.90157952 26 1 C26 1.33 26 1.66 26 2 C16.43 2 6.86 2 -3 2 C-3 10.25 -3 18.5 -3 27 C-11.58 27 -20.16 27 -29 27 C-29.04125 22.91625 -29.0825 18.8325 -29.125 14.625 C-29.14320801 13.33803223 -29.16141602 12.05106445 -29.18017578 10.72509766 C-29.1851709 9.71495605 -29.19016602 8.70481445 -29.1953125 7.6640625 C-29.20578613 6.62717285 -29.21625977 5.5902832 -29.22705078 4.52197266 C-29 2 -29 2 -27 0 C-24.43018341 -0.31167112 -21.95409086 -0.5126621 -19.375 -0.625 C-18.68792969 -0.66367187 -18.00085938 -0.70234375 -17.29296875 -0.7421875 C-4.27774261 -1.4259142 -4.27774261 -1.4259142 0 0 Z " fill="#F7B128" transform="translate(326,671)"/>
<path d="M0 0 C12.87 0.495 12.87 0.495 26 1 C26 12.22 26 23.44 26 35 C25.67 35 25.34 35 25 35 C25 32.36 25 29.72 25 27 C17.08 27 9.16 27 1 27 C1 33.93 1 40.86 1 48 C13.375 47.505 13.375 47.505 26 47 C26 47.66 26 48.32 26 49 C17.42 49 8.84 49 0 49 C0 32.83 0 16.66 0 0 Z " fill="#132C54" transform="translate(431,596)"/>
<path d="M0 0 C8.58 0 17.16 0 26 0 C26 8.91 26 17.82 26 27 C17.42 27 8.84 27 0 27 C0 18.09 0 9.18 0 0 Z " fill="#00133B" transform="translate(270,618)"/>
<path d="M0 0 C8.58 0 17.16 0 26 0 C26 8.58 26 17.16 26 26 C17.42 26 8.84 26 0 26 C0 17.42 0 8.84 0 0 Z " fill="#0F213F" transform="translate(694,670)"/>
<path d="M0 0 C8.25 0 16.5 0 25 0 C25.20625 3.5475 25.4125 7.095 25.625 10.75 C25.73062256 12.41820801 25.73062256 12.41820801 25.83837891 14.12011719 C25.90677979 15.4451123 25.90677979 15.4451123 25.9765625 16.796875 C26.02893066 17.69760742 26.08129883 18.59833984 26.13525391 19.52636719 C26 22 26 22 24 26 C16.08 26.33 8.16 26.66 0 27 C0 18.09 0 9.18 0 0 Z " fill="#BF4903" transform="translate(271,749)"/>
<path d="M0 0 C8.25 0 16.5 0 25 0 C25 8.58 25 17.16 25 26 C16.75 26 8.5 26 0 26 C0 17.42 0 8.84 0 0 Z " fill="#1A3B6A" transform="translate(590,597)"/>
<path d="M0 0 C8.91 0 17.82 0 27 0 C27.020625 3.403125 27.04125 6.80625 27.0625 10.3125 C27.071604 11.38153564 27.08070801 12.45057129 27.09008789 13.55200195 C27.09258545 14.39722412 27.09508301 15.24244629 27.09765625 16.11328125 C27.10551147 17.40939331 27.10551147 17.40939331 27.11352539 18.73168945 C27 21 27 21 26 24 C17.42 24.33 8.84 24.66 0 25 C0 16.75 0 8.5 0 0 Z " fill="#122646" transform="translate(667,274)"/>
<path d="M0 0 C0 8.91 0 17.82 0 27 C-8.91 27 -17.82 27 -27 27 C-27 26.67 -27 26.34 -27 26 C-23.535 25.505 -23.535 25.505 -20 25 C-20 24.34 -20 23.68 -20 23 C-21.65 23 -23.3 23 -25 23 C-25.2165625 21.39125 -25.2165625 21.39125 -25.4375 19.75 C-25.83749442 17.08337051 -26.27591924 14.58600271 -27 12 C-25.68 11.67 -24.36 11.34 -23 11 C-23 9.68 -23 8.36 -23 7 C-24.32 7.33 -25.64 7.66 -27 8 C-26.25 3.25 -26.25 3.25 -24 1 C-22.00048828 0.68115234 -22.00048828 0.68115234 -19.5703125 0.5859375 C-18.69246094 0.54726563 -17.81460938 0.50859375 -16.91015625 0.46875 C-15.99105469 0.4378125 -15.07195313 0.406875 -14.125 0.375 C-13.21363281 0.33632813 -12.30226563 0.29765625 -11.36328125 0.2578125 C-7.57022362 0.1023138 -3.79708435 0 0 0 Z " fill="#1F457A" transform="translate(669,570)"/>
<path d="M0 0 C1.00023193 0.00523682 2.00046387 0.01047363 3.03100586 0.01586914 C4.00303955 0.0183667 4.97507324 0.02086426 5.9765625 0.0234375 C7.84235962 0.03709351 7.84235962 0.03709351 9.74584961 0.05102539 C13.68522461 0.07165039 17.62459961 0.09227539 21.68334961 0.11352539 C21.68334961 8.69352539 21.68334961 17.27352539 21.68334961 26.11352539 C13.43334961 25.78352539 5.18334961 25.45352539 -3.31665039 25.11352539 C-3.33727539 21.17415039 -3.35790039 17.23477539 -3.37915039 13.17602539 C-3.3928064 11.31022827 -3.3928064 11.31022827 -3.40673828 9.40673828 C-3.41048462 7.94868774 -3.41048462 7.94868774 -3.41430664 6.46118164 C-3.41954346 5.46094971 -3.42478027 4.46071777 -3.43017578 3.43017578 C-3.27687502 0.30185115 -3.12832463 0.15330076 0 0 Z " fill="#E16000" transform="translate(274.316650390625,644.886474609375)"/>
<path d="M0 0 C13.53 0 27.06 0 41 0 C40 3 40 3 37.625 4.25 C35 5 35 5 32 4 C32.33 3.34 32.66 2.68 33 2 C32.34 1.67 31.68 1.34 31 1 C30.67 1.99 30.34 2.98 30 4 C28.54182203 4.16802051 27.0834516 4.33437143 25.625 4.5 C24.40683594 4.63921875 24.40683594 4.63921875 23.1640625 4.78125 C21 5 21 5 19 5 C19 5.99 19 6.98 19 8 C20.65 7.67 22.3 7.34 24 7 C24 7.66 24 8.32 24 9 C23.34 9 22.68 9 22 9 C22.2475 9.886875 22.495 10.77375 22.75 11.6875 C23 15 23 15 21.0625 17.875 C20.381875 18.57625 19.70125 19.2775 19 20 C19.99 20 20.98 20 22 20 C22 20.99 22 21.98 22 23 C21.34 23 20.68 23 20 23 C19.67 23.99 19.34 24.98 19 26 C12.73 26 6.46 26 0 26 C0 17.42 0 8.84 0 0 Z " fill="#2F5F9F" transform="translate(567,200)"/>
<path d="M0 0 C1.32 0 2.64 0 4 0 C9.445 0.495 9.445 0.495 15 1 C15 9.25 15 17.5 15 26 C6.75 26 -1.5 26 -10 26 C-9.896875 22.08125 -9.79375 18.1625 -9.6875 14.125 C-9.66260498 12.89023926 -9.63770996 11.65547852 -9.61206055 10.38330078 C-9.56239136 8.92899658 -9.56239136 8.92899658 -9.51171875 7.4453125 C-9.48553467 6.45031738 -9.45935059 5.45532227 -9.43237305 4.43017578 C-9.28968994 3.62821777 -9.14700684 2.82625977 -9 2 C-5.50731761 -0.32845493 -4.09263406 -0.16704629 0 0 Z " fill="#0E203F" transform="translate(575,670)"/>
<path d="M0 0 C7.59 0 15.18 0 23 0 C23 8.58 23 17.16 23 26 C15.41 26 7.82 26 0 26 C0 17.42 0 8.84 0 0 Z " fill="#C75002" transform="translate(407,619)"/>
<path d="M0 0 C7.59 0 15.18 0 23 0 C23.68437927 4.10627563 24.1218396 6.80126878 23.87890625 10.7421875 C23.81425171 11.87696533 23.81425171 11.87696533 23.74829102 13.03466797 C23.68697998 13.97197754 23.62566895 14.90928711 23.5625 15.875 C23.376875 18.88625 23.19125 21.8975 23 25 C15.41 25 7.82 25 0 25 C0 16.75 0 8.5 0 0 Z " fill="#000D25" transform="translate(567,172)"/>
<path d="M0 0 C13.2 0 26.4 0 40 0 C39.67 0.66 39.34 1.32 39 2 C36.35139573 2.59355614 33.70802678 2.74209269 31 3 C31 3.66 31 4.32 31 5 C31.99 5.33 32.98 5.66 34 6 C33.38125 6.268125 32.7625 6.53625 32.125 6.8125 C29.7004767 7.95556848 29.7004767 7.95556848 28 11 C27.34 11 26.68 11 26 11 C26 10.01 26 9.02 26 8 C25.34 8 24.68 8 24 8 C24.33 9.32 24.66 10.64 25 12 C24.01 12 23.02 12 22 12 C21.67 13.32 21.34 14.64 21 16 C18.69 16.33 16.38 16.66 14 17 C14 15.68 14 14.36 14 13 C13.34 13 12.68 13 12 13 C11.67 13.99 11.34 14.98 11 16 C8.9375 16.6875 8.9375 16.6875 7 17 C7 17.99 7 18.98 7 20 C5.35 19.01 3.7 18.02 2 17 C2 17.99 2 18.98 2 20 C-3.75 23 -3.75 23 -6 23 C-6.02698422 20.56242587 -6.04683099 18.12515085 -6.0625 15.6875 C-6.07087891 14.99720703 -6.07925781 14.30691406 -6.08789062 13.59570312 C-6.10307906 10.4516975 -6.00193327 8.00579981 -5 5 C-4.34 5.33 -3.68 5.66 -3 6 C-3.33 6.99 -3.66 7.98 -4 9 C-3.34 9 -2.68 9 -2 9 C-2 8.34 -2 7.68 -2 7 C-0.68 7 0.64 7 2 7 C1.67 6.01 1.34 5.02 1 4 C2.65 4.33 4.3 4.66 6 5 C6 4.01 6 3.02 6 2 C3.69 2 1.38 2 -1 2 C-0.67 1.34 -0.34 0.68 0 0 Z " fill="#244F89" transform="translate(595,571)"/>
<path d="M0 0 C26.73 0 53.46 0 81 0 C81 0.33 81 0.66 81 1 C70.11 1 59.22 1 48 1 C48 1.66 48 2.32 48 3 C49.98 3 51.96 3 54 3 C54 3.66 54 4.32 54 5 C53.34 5 52.68 5 52 5 C52 5.99 52 6.98 52 8 C53.98 8.66 55.96 9.32 58 10 C58 10.66 58 11.32 58 12 C56.33388095 12.042721 54.66617115 12.04063832 53 12 C52.505 11.505 52.505 11.505 52 11 C52 13.31 52 15.62 52 18 C51.34 18 50.68 18 50 18 C50 18.66 50 19.32 50 20 C50.99 20.33 51.98 20.66 53 21 C53 21.99 53 22.98 53 24 C62.24 24 71.48 24 81 24 C81 24.33 81 24.66 81 25 C55.92 25 30.84 25 5 25 C5 24.67 5 24.34 5 24 C16.88 23.67 28.76 23.34 41 23 C41 22.01 41 21.02 41 20 C41.66 20 42.32 20 43 20 C43 19.34 43 18.68 43 18 C42.34 18 41.68 18 41 18 C40.8125 15.6875 40.8125 15.6875 41 13 C41.515625 12.54625 42.03125 12.0925 42.5625 11.625 C43.036875 11.08875 43.51125 10.5525 44 10 C43.67084112 6.44579041 43.67084112 6.44579041 43 3 C43.33 2.34 43.66 1.68 44 1 C40.06191772 1.1097257 36.12480411 1.24039131 32.1875 1.375 C31.06794922 1.4059375 29.94839844 1.436875 28.79492188 1.46875 C27.18520508 1.52675781 27.18520508 1.52675781 25.54296875 1.5859375 C24.0583313 1.63306885 24.0583313 1.63306885 22.54370117 1.68115234 C19.75924906 1.83773433 19.75924906 1.83773433 17 4 C18.32 4 19.64 4 21 4 C21 3.34 21 2.68 21 2 C21.66 2 22.32 2 23 2 C23 2.66 23 3.32 23 4 C23.66 4 24.32 4 25 4 C25 3.34 25 2.68 25 2 C25.66 2 26.32 2 27 2 C27 2.66 27 3.32 27 4 C28.32 4.33 29.64 4.66 31 5 C31 5.99 31 6.98 31 8 C30.360625 8.433125 29.72125 8.86625 29.0625 9.3125 C26.67933367 10.91325516 26.67933367 10.91325516 26.25 14.1875 C26.1675 15.115625 26.085 16.04375 26 17 C27.65 17 29.3 17 31 17 C31.33 18.32 31.66 19.64 32 21 C31.34 21 30.68 21 30 21 C30 20.34 30 19.68 30 19 C28.35 19.66 26.7 20.32 25 21 C24.67 20.01 24.34 19.02 24 18 C23.34 18 22.68 18 22 18 C22 18.66 22 19.32 22 20 C21.34 20 20.68 20 20 20 C20 20.66 20 21.32 20 22 C18.35 22.33 16.7 22.66 15 23 C16.02087164 19.93738507 16.52810149 18.94220597 19 17 C21.6875 16.3125 21.6875 16.3125 24 16 C24 12.7 24 9.4 24 6 C23.67 6.99 23.34 7.98 23 9 C23.33 9.66 23.66 10.32 24 11 C21.75 11.25 21.75 11.25 19 11 C17.6256709 9.70896357 16.29103643 8.3743291 15 7 C12.8618034 6.2127322 12.8618034 6.2127322 11 6 C10.67 4.35 10.34 2.7 10 1 C6.7 1 3.4 1 0 1 C0 0.67 0 0.34 0 0 Z " fill="#2E5D9C" transform="translate(485,226)"/>
<path d="M0 0 C0 8.25 0 16.5 0 25 C-6.93 25 -13.86 25 -21 25 C-21 17.08 -21 9.16 -21 1 C-16.6378125 0.7525 -16.6378125 0.7525 -12.1875 0.5 C-10.81887817 0.42168945 -10.81887817 0.42168945 -9.42260742 0.34179688 C-8.33749878 0.28088867 -8.33749878 0.28088867 -7.23046875 0.21875 C-6.49207764 0.17685547 -5.75368652 0.13496094 -4.99291992 0.09179688 C-3.33009506 0.01520467 -1.6645879 0 0 0 Z " fill="#000C22" transform="translate(587,570)"/>
<path d="M0 0 C2.97 0 5.94 0 9 0 C8.34 0.99 7.68 1.98 7 3 C7 3.99 7 4.98 7 6 C7.99 6 8.98 6 10 6 C10 7.32 10 8.64 10 10 C9.01 10.33 8.02 10.66 7 11 C7.2475 11.7734375 7.2475 11.7734375 7.5 12.5625 C8.15049 15.73363876 8.0620734 18.77218334 8 22 C9.65 22 11.3 22 13 22 C13 22.66 13 23.32 13 24 C14.32 24.33 15.64 24.66 17 25 C6.37719894 26.39315424 -4.31126627 26.09675083 -15 26 C-15 24.33333333 -15 22.66666667 -15 21 C-16.65 21.33 -18.3 21.66 -20 22 C-19.34 22.66 -18.68 23.32 -18 24 C-22.49167828 25.19600901 -26.73269793 24.9185704 -31.3125 24.5625 C-32.05306641 24.51029297 -32.79363281 24.45808594 -33.55664062 24.40429688 C-35.37152709 24.27549848 -37.18583325 24.13856738 -39 24 C-38.67 23.34 -38.34 22.68 -38 22 C-36.7315625 22.0928125 -36.7315625 22.0928125 -35.4375 22.1875 C-31.40908798 21.96776844 -28.66329796 20.62813243 -25 19 C-23.68 19 -22.36 19 -21 19 C-18.73122465 16.58119071 -18.73122465 16.58119071 -17 14 C-13.76509224 14.55774272 -12.02144994 15.37211508 -10 18 C-10 18.99 -10 19.98 -10 21 C-9.34 20.67 -8.68 20.34 -8 20 C-8.66 19.01 -9.32 18.02 -10 17 C-10 16.01 -10 15.02 -10 14 C-9.34 14 -8.68 14 -8 14 C-8 14.99 -8 15.98 -8 17 C-7.15973604 15.23244474 -6.32801278 13.46082737 -5.5 11.6875 C-5.0359375 10.70136719 -4.571875 9.71523438 -4.09375 8.69921875 C-2.81222528 6.02199874 -2.81222528 6.02199874 -3 3 C-2.34 3 -1.68 3 -1 3 C-0.67 2.01 -0.34 1.02 0 0 Z M-13 18 C-13.33 18.66 -13.66 19.32 -14 20 C-13.01 20 -12.02 20 -11 20 C-11 19.34 -11 18.68 -11 18 C-11.66 18 -12.32 18 -13 18 Z " fill="#26518B" transform="translate(636,571)"/>
<path d="M0 0 C6.14252407 -0.07583363 11.95210034 -0.07518216 18 1 C17.34 2.65 16.68 4.3 16 6 C17.98 6 19.96 6 22 6 C20.02 6.99 20.02 6.99 18 8 C18 8.99 18 9.98 18 11 C16.35 11.33 14.7 11.66 13 12 C13 12.66 13 13.32 13 14 C13.99 14.33 14.98 14.66 16 15 C14.35 15 12.7 15 11 15 C11.99 16.485 11.99 16.485 13 18 C12.34 18 11.68 18 11 18 C11.33 18.66 11.66 19.32 12 20 C12.99 20.33 13.98 20.66 15 21 C15 21.66 15 22.32 15 23 C10.05 23.495 10.05 23.495 5 24 C4.67 22.35 4.34 20.7 4 19 C2.68 19 1.36 19 0 19 C0 12.73 0 6.46 0 0 Z " fill="#25518C" transform="translate(431,251)"/>
<path d="M0 0 C13.53 0 27.06 0 41 0 C41 6.93 41 13.86 41 21 C40.505 19.02 40.505 19.02 40 17 C38.02 17 36.04 17 34 17 C33.505 16.01 33.505 16.01 33 15 C33.969375 14.7525 34.93875 14.505 35.9375 14.25 C36.948125 13.8375 37.95875 13.425 39 13 C39.33 11.68 39.66 10.36 40 9 C37.36 9.66 34.72 10.32 32 11 C31.34 10.01 30.68 9.02 30 8 C30.99 8 31.98 8 33 8 C33 7.34 33 6.68 33 6 C35.38564077 6.57584432 37.66682784 7.22227595 40 8 C40 5.69 40 3.38 40 1 C34.72 1 29.44 1 24 1 C24 1.66 24 2.32 24 3 C23.34 3 22.68 3 22 3 C22 4.32 22 5.64 22 7 C22.928125 6.525625 23.85625 6.05125 24.8125 5.5625 C28 4 28 4 31 3 C31 3.99 31 4.98 31 6 C29.35 6.66 27.7 7.32 26 8 C26 8.66 26 9.32 26 10 C26.99 10.33 27.98 10.66 29 11 C27.02 11 25.04 11 23 11 C22.87625 11.61875 22.7525 12.2375 22.625 12.875 C22 15 22 15 20 17 C20 13.20442119 20.50178941 11.37097383 22 8 C20.68 8.33 19.36 8.66 18 9 C18 8.34 18 7.68 18 7 C17.01 7 16.02 7 15 7 C15 6.34 15 5.68 15 5 C14.01 5 13.02 5 12 5 C11.67 4.34 11.34 3.68 11 3 C10.01 3.33 9.02 3.66 8 4 C8 4.66 8 5.32 8 6 C7.01 6 6.02 6 5 6 C5.66 4.35 6.32 2.7 7 1 C4.69 1 2.38 1 0 1 C0 0.67 0 0.34 0 0 Z M30 11 C30.66 11 31.32 11 32 11 C31.79375 11.78375 31.5875 12.5675 31.375 13.375 C31.25125 14.24125 31.1275 15.1075 31 16 C31.66 16.66 32.32 17.32 33 18 C31.35 17.67 29.7 17.34 28 17 C28.66 15.02 29.32 13.04 30 11 Z " fill="#295590" transform="translate(442,251)"/>
<path d="M0 0 C0.66 0 1.32 0 2 0 C2 8.25 2 16.5 2 25 C-14.17 25 -30.34 25 -47 25 C-47 24.67 -47 24.34 -47 24 C-34.46 24 -21.92 24 -9 24 C-9 23.34 -9 22.68 -9 22 C-7.68 22 -6.36 22 -5 22 C-5 21.34 -5 20.68 -5 20 C-5.99 19.67 -6.98 19.34 -8 19 C-7.67 17.35 -7.34 15.7 -7 14 C-5.68 14 -4.36 14 -3 14 C-3.66 12.35 -4.32 10.7 -5 9 C-6.65 9.66 -8.3 10.32 -10 11 C-9.67 10.01 -9.34 9.02 -9 8 C-7.1875 7.2265625 -7.1875 7.2265625 -5 6.625 C-2.83765437 5.95794409 -2.83765437 5.95794409 -1 5 C0.13440778 2.42919865 0.13440778 2.42919865 0 0 Z " fill="#1C3F70" transform="translate(665,274)"/>
<path d="M0 0 C1.65 0 3.3 0 5 0 C5 0.66 5 1.32 5 2 C3.68 2 2.36 2 1 2 C1 2.66 1 3.32 1 4 C2.32 4 3.64 4 5 4 C5 6.64 5 9.28 5 12 C4.443125 11.98839844 3.88625 11.97679687 3.3125 11.96484375 C-0.52414105 11.91947806 -4.20516571 11.9657317 -8 12.5625 C-12.4269257 13.20511825 -16.60092506 12.66189785 -21 12 C-21 10.02 -21 8.04 -21 6 C-20.071875 6.103125 -19.14375 6.20625 -18.1875 6.3125 C-17.135625 6.209375 -16.08375 6.10625 -15 6 C-13.21030974 3.57327433 -13.21030974 3.57327433 -12 1 C-11.34 1 -10.68 1 -10 1 C-10 3.97 -10 6.94 -10 10 C-9.67 8.68 -9.34 7.36 -9 6 C-8.34 5.67 -7.68 5.34 -7 5 C-6.67 4.01 -6.34 3.02 -6 2 C-6.66 1.67 -7.32 1.34 -8 1 C-6.68 1 -5.36 1 -4 1 C-4 2.32 -4 3.64 -4 5 C-3.01 5 -2.02 5 -1 5 C-0.67 3.35 -0.34 1.7 0 0 Z " fill="#265089" transform="translate(452,370)"/>
<path d="M0 0 C13.53 0 27.06 0 41 0 C40 3 40 3 37.625 4.25 C35 5 35 5 32 4 C32.33 3.34 32.66 2.68 33 2 C32.34 1.67 31.68 1.34 31 1 C30.67 1.99 30.34 2.98 30 4 C28.54182203 4.16802051 27.0834516 4.33437143 25.625 4.5 C24.40683594 4.63921875 24.40683594 4.63921875 23.1640625 4.78125 C21 5 21 5 19 5 C19 5.99 19 6.98 19 8 C20.65 7.67 22.3 7.34 24 7 C24 7.66 24 8.32 24 9 C23.34 9 22.68 9 22 9 C22.33 10.65 22.66 12.3 23 14 C16.84765625 13.4140625 16.84765625 13.4140625 15 13 C14.67 12.34 14.34 11.68 14 11 C14.33 10.34 14.66 9.68 15 9 C14.34 9 13.68 9 13 9 C12.67 9.99 12.34 10.98 12 12 C10.02 12 8.04 12 6 12 C5.67 11.01 5.34 10.02 5 9 C5.763125 9.0825 6.52625 9.165 7.3125 9.25 C8.199375 9.1675 9.08625 9.085 10 9 C11.04625409 7.70264493 12.04701223 6.36733028 13 5 C15.125 4.375 15.125 4.375 17 4 C17.33 3.34 17.66 2.68 18 2 C13.05 2.33 8.1 2.66 3 3 C3.33 3.99 3.66 4.98 4 6 C3.01 5.67 2.02 5.34 1 5 C0.67 3.35 0.34 1.7 0 0 Z " fill="#2B5997" transform="translate(567,200)"/>
<path d="M0 0 C7.26 0 14.52 0 22 0 C22 0.33 22 0.66 22 1 C18.7 1.33 15.4 1.66 12 2 C11.34 4.64 10.68 7.28 10 10 C10.66 10 11.32 10 12 10 C12 12.31 12 14.62 12 17 C8.04 17 4.08 17 0 17 C0 11.39 0 5.78 0 0 Z M8 10 C8.33 10.66 8.66 11.32 9 12 C9.33 11.34 9.66 10.68 10 10 C9.34 10 8.68 10 8 10 Z " fill="#1A3D6D" transform="translate(566,596)"/>
<path d="M0 0 C8.25 0 16.5 0 25 0 C25 0.66 25 1.32 25 2 C24.01 2 23.02 2 22 2 C22 2.66 22 3.32 22 4 C20.35 4.33 18.7 4.66 17 5 C17.33 4.34 17.66 3.68 18 3 C18.66 3 19.32 3 20 3 C20 2.34 20 1.68 20 1 C15.87026372 1.56739868 15.87026372 1.56739868 12 3 C12 3.66 12 4.32 12 5 C11.01 5 10.02 5 9 5 C9 5.99 9 6.98 9 8 C10.98 7.67 12.96 7.34 15 7 C14.34 8.98 13.68 10.96 13 13 C11.68 12.34 10.36 11.68 9 11 C9 10.34 9 9.68 9 9 C7.68 9 6.36 9 5 9 C4.67 10.32 4.34 11.64 4 13 C3.34 13 2.68 13 2 13 C2 13.99 2 14.98 2 16 C1.34 16 0.68 16 0 16 C0 10.72 0 5.44 0 0 Z " fill="#A21E00" transform="translate(432,645)"/>
<path d="M0 0 C0.33 0 0.66 0 1 0 C1 8.58 1 17.16 1 26 C2.918125 25.835 4.83625 25.67 6.8125 25.5 C12.89975468 25.02610188 18.89656779 24.9186209 25 25 C25 18.4 25 11.8 25 5 C25.66 5 26.32 5 27 5 C27 12.26 27 19.52 27 27 C18.42 27 9.84 27 1 27 C1 35.91 1 44.82 1 54 C0.67 54 0.34 54 0 54 C0 45.09 0 36.18 0 27 C-7.92 27 -15.84 27 -24 27 C-24 26.67 -24 26.34 -24 26 C-16.08 26 -8.16 26 0 26 C0 17.42 0 8.84 0 0 Z " fill="#C52F00" transform="translate(430,749)"/>
<path d="M0 0 C16.83 0 33.66 0 51 0 C51 0.33 51 0.66 51 1 C48.03 1 45.06 1 42 1 C42 1.66 42 2.32 42 3 C42.804375 3.12375 43.60875 3.2475 44.4375 3.375 C45.7059375 3.684375 45.7059375 3.684375 47 4 C47.495 4.99 47.495 4.99 48 6 C48.33 5.34 48.66 4.68 49 4 C49.66 4 50.32 4 51 4 C50.67 6.31 50.34 8.62 50 11 C48.02 11 46.04 11 44 11 C43.67 11.99 43.34 12.98 43 14 C40.69 14.33 38.38 14.66 36 15 C36.33 13.68 36.66 12.36 37 11 C38.32 11 39.64 11 41 11 C41 10.34 41 9.68 41 9 C41.66 9 42.32 9 43 9 C42.505 8.01 42.505 8.01 42 7 C41.34 7 40.68 7 40 7 C40.33 5.02 40.66 3.04 41 1 C27.47 1 13.94 1 0 1 C0 0.67 0 0.34 0 0 Z " fill="#3469AF" transform="translate(567,199)"/>
<path d="M0 0 C0.99 0.99 0.99 0.99 2 2 C4.06874034 2.6425235 4.06874034 2.6425235 6 3 C6 3.66 6 4.32 6 5 C11.94 5.33 17.88 5.66 24 6 C24 6.33 24 6.66 24 7 C-9.33 7 -42.66 7 -77 7 C-77 6.67 -77 6.34 -77 6 C-55.22 5.67 -33.44 5.34 -11 5 C-11 4.34 -11 3.68 -11 3 C-8.125 2.375 -8.125 2.375 -5 2 C-4.01 2.99 -4.01 2.99 -3 4 C-3.66 4.33 -4.32 4.66 -5 5 C-3.35 5.33 -1.7 5.66 0 6 C0 4.02 0 2.04 0 0 Z " fill="#861904" transform="translate(405,797)"/>
<path d="M0 0 C2.31 0 4.62 0 7 0 C6.67 0.99 6.34 1.98 6 3 C5.67 2.67 5.34 2.34 5 2 C4.67 2.66 4.34 3.32 4 4 C4.99 4.33 5.98 4.66 7 5 C8.50943396 11.98113208 8.50943396 11.98113208 7 15 C6.01 15 5.02 15 4 15 C4.66 15.66 5.32 16.32 6 17 C6.125 20.125 6.125 20.125 6 23 C5.34 23 4.68 23 4 23 C3.67 21.35 3.34 19.7 3 18 C1.68 18 0.36 18 -1 18 C-1.02721176 16.10424749 -1.04649136 14.20838021 -1.0625 12.3125 C-1.07410156 11.25675781 -1.08570313 10.20101563 -1.09765625 9.11328125 C-1.00856949 6.27319544 -0.63190598 3.76147889 0 1 C0 0.67 0 0.34 0 0 Z " fill="#234E88" transform="translate(432,252)"/>
<path d="M0 0 C13.53 0 27.06 0 41 0 C41 6.93 41 13.86 41 21 C40.505 19.02 40.505 19.02 40 17 C38.02 17 36.04 17 34 17 C33.505 16.01 33.505 16.01 33 15 C33.969375 14.7525 34.93875 14.505 35.9375 14.25 C36.948125 13.8375 37.95875 13.425 39 13 C39.33 11.68 39.66 10.36 40 9 C37.36 9.66 34.72 10.32 32 11 C31.34 10.01 30.68 9.02 30 8 C30.99 8 31.98 8 33 8 C33 7.34 33 6.68 33 6 C35.38564077 6.57584432 37.66682784 7.22227595 40 8 C40 5.69 40 3.38 40 1 C26.8 1 13.6 1 0 1 C0 0.67 0 0.34 0 0 Z M30 11 C30.66 11 31.32 11 32 11 C31.79375 11.78375 31.5875 12.5675 31.375 13.375 C31.25125 14.24125 31.1275 15.1075 31 16 C31.66 16.66 32.32 17.32 33 18 C31.35 17.67 29.7 17.34 28 17 C28.66 15.02 29.32 13.04 30 11 Z " fill="#3064A8" transform="translate(442,251)"/>
<path d="M0 0 C0.33 0 0.66 0 1 0 C1 13.2 1 26.4 1 40 C2.32 39.34 3.64 38.68 5 38 C5.33 37.01 5.66 36.02 6 35 C6.99 35.33 7.98 35.66 9 36 C9.6875 38.0625 9.6875 38.0625 10 40 C9.01 40.495 9.01 40.495 8 41 C7.34 40.67 6.68 40.34 6 40 C6.33 40.99 6.66 41.98 7 43 C5.35 43.66 3.7 44.32 2 45 C1.67 49.29 1.34 53.58 1 58 C1.66 58 2.32 58 3 58 C3.33 58.99 3.66 59.98 4 61 C3.01 61.495 3.01 61.495 2 62 C1.59270772 64.32156597 1.25561323 66.6568787 1 69 C0.67 69 0.34 69 0 69 C0 46.23 0 23.46 0 0 Z " fill="#3168AE" transform="translate(431,270)"/>
<path d="M0 0 C0.99 0 1.98 0 3 0 C3 16.83 3 33.66 3 51 C2.67 51 2.34 51 2 51 C1.67 45.72 1.34 40.44 1 35 C0.67 35 0.34 35 0 35 C-0.16276042 32.98177083 -0.32552083 30.96354167 -0.48828125 28.9453125 C-0.87393036 26.60480784 -0.87393036 26.60480784 -4 25 C-3.34 24.01 -2.68 23.02 -2 22 C-2 21.01 -2 20.02 -2 19 C-1.34 19 -0.68 19 0 19 C-0.33 14.38 -0.66 9.76 -1 5 C-2.32 4.67 -3.64 4.34 -5 4 C-3.35 3.34 -1.7 2.68 0 2 C0 1.34 0 0.68 0 0 Z " fill="#8B1A07" transform="translate(454,647)"/>
<path d="M0 0 C0.68707555 2.49064888 1 4.37886292 1 7 C0.34 7 -0.32 7 -1 7 C-1 7.66 -1 8.32 -1 9 C-0.01 9.33 0.98 9.66 2 10 C2 10.99 2 11.98 2 13 C11.24 13 20.48 13 30 13 C30 13.33 30 13.66 30 14 C4.92 14 -20.16 14 -46 14 C-46 13.67 -46 13.34 -46 13 C-31.81 12.67 -17.62 12.34 -3 12 C-1.62189473 9.24378946 -2.02080116 6.90736665 -2.16015625 3.875 C-2 2 -2 2 0 0 Z " fill="#2F63A5" transform="translate(536,237)"/>
<path d="M0 0 C2.97 0.495 2.97 0.495 6 1 C7.125 5.75 7.125 5.75 6 8 C4.68 8 3.36 8 2 8 C1.67 11.96 1.34 15.92 1 20 C1.66 20.33 2.32 20.66 3 21 C2.34 21.99 1.68 22.98 1 24 C1.59014893 23.96447021 2.18029785 23.92894043 2.78833008 23.89233398 C5.46273828 23.73470626 8.1375704 23.58600534 10.8125 23.4375 C11.74126953 23.38142578 12.67003906 23.32535156 13.62695312 23.26757812 C14.51962891 23.21923828 15.41230469 23.17089844 16.33203125 23.12109375 C17.15421143 23.0739624 17.9763916 23.02683105 18.82348633 22.97827148 C21 23 21 23 24 24 C24 24.66 24 25.32 24 26 C16.08 26 8.16 26 0 26 C0 17.42 0 8.84 0 0 Z " fill="#1B3D6D" transform="translate(590,597)"/>
<path d="M0 0 C0.33 0 0.66 0 1 0 C1 5.28 1 10.56 1 16 C-0.65 16.33 -2.3 16.66 -4 17 C-4.33 16.34 -4.66 15.68 -5 15 C-7.01669827 13.86649466 -7.01669827 13.86649466 -9 13 C-9 12.34 -9 11.68 -9 11 C-8.34 11 -7.68 11 -7 11 C-7.66 9.02 -8.32 7.04 -9 5 C-7.35 4.01 -5.7 3.02 -4 2 C-4 2.99 -4 3.98 -4 5 C-3.34 5 -2.68 5 -2 5 C-2 5.66 -2 6.32 -2 7 C-1.34 7 -0.68 7 0 7 C0 4.69 0 2.38 0 0 Z " fill="#193967" transform="translate(482,326)"/>
<path d="M0 0 C4.62 0 9.24 0 14 0 C13.67 0.66 13.34 1.32 13 2 C12.01 2.28875 11.02 2.5775 10 2.875 C6.89669763 3.64527425 6.89669763 3.64527425 6.0625 5.9375 C5.87528304 8.20054488 5.87528304 8.20054488 7 11 C5.04783565 12.95216435 3.46800047 13.84826645 1 15 C-1.13079691 10.73840618 -0.04502317 4.59236298 0 0 Z M2 2 C2 2.99 2 3.98 2 5 C2.99 5 3.98 5 5 5 C5 4.01 5 3.02 5 2 C4.01 2 3.02 2 2 2 Z " fill="#1B3D6D" transform="translate(617,275)"/>
<path d="M0 0 C0.66 1.32 1.32 2.64 2 4 C1.01 4.33 0.02 4.66 -1 5 C-1.66 4.67 -2.32 4.34 -3 4 C-3 4.66 -3 5.32 -3 6 C-0.03 6.495 -0.03 6.495 3 7 C3 7.66 3 8.32 3 9 C2.01 9 1.02 9 0 9 C0.7763932 12.0745356 0.7763932 12.0745356 3 14 C2.67 14.99 2.34 15.98 2 17 C0.02 17 -1.96 17 -4 17 C-4 15.68 -4 14.36 -4 13 C-4.66 13 -5.32 13 -6 13 C-6.08121924 11.39667209 -6.13929134 9.79215974 -6.1875 8.1875 C-6.22230469 7.29417969 -6.25710938 6.40085937 -6.29296875 5.48046875 C-6 3 -6 3 -4.67578125 1.17578125 C-3 0 -3 0 0 0 Z " fill="#3060A2" transform="translate(438,315)"/>
<path d="M0 0 C2.475 0.495 2.475 0.495 5 1 C5.33 2.98 5.66 4.96 6 7 C5.34 7 4.68 7 4 7 C4 5.68 4 4.36 4 3 C3.34 3 2.68 3 2 3 C1.67 3.66 1.34 4.32 1 5 C1.66 5 2.32 5 3 5 C3 5.66 3 6.32 3 7 C2.34 7 1.68 7 1 7 C1 7.99 1 8.98 1 10 C3.43717258 9.72965366 3.43717258 9.72965366 6 9 C6.66 8.01 7.32 7.02 8 6 C9.31471568 6.28151087 10.62675767 6.57553339 11.9375 6.875 C12.66839844 7.03742188 13.39929688 7.19984375 14.15234375 7.3671875 C16 8 16 8 17 10 C16.113125 9.95875 15.22625 9.9175 14.3125 9.875 C10.97499857 10.00094345 9.04364028 10.75132706 6 12 C3.1875 12.125 3.1875 12.125 1 12 C1.34444881 14.47266765 1.34444881 14.47266765 2 17 C2.66 17.33 3.32 17.66 4 18 C3.01 18 2.02 18 1 18 C0 17 0 17 -0.09765625 13.18359375 C-0.09098089 11.60153318 -0.07901875 10.01948841 -0.0625 8.4375 C-0.05798828 7.63119141 -0.05347656 6.82488281 -0.04882812 5.99414062 C-0.03700518 3.99606244 -0.01906914 1.99802217 0 0 Z " fill="#2B5794" transform="translate(485,227)"/>
<path d="M0 0 C1.64574566 -0.02688151 3.29161413 -0.04634123 4.9375 -0.0625 C5.85402344 -0.07410156 6.77054688 -0.08570313 7.71484375 -0.09765625 C10 0 10 0 11 1 C11.23828125 3.1796875 11.23828125 3.1796875 11.3125 5.875 C11.34988281 6.75929688 11.38726563 7.64359375 11.42578125 8.5546875 C11 11 11 11 9.16796875 12.8828125 C8.45253906 13.25148438 7.73710938 13.62015625 7 14 C6.01 13.67 5.02 13.34 4 13 C5.32 11.68 6.64 10.36 8 9 C6.35 9 4.7 9 3 9 C2.67 8.34 2.34 7.68 2 7 C2.66 7 3.32 7 4 7 C2.02 3.535 2.02 3.535 0 0 Z M4 2 C4.33 2.99 4.66 3.98 5 5 C6.32 4.67 7.64 4.34 9 4 C9 3.34 9 2.68 9 2 C7.35 2 5.7 2 4 2 Z " fill="#193864" transform="translate(709,518)"/>
<path d="M0 0 C1.32 0.66 2.64 1.32 4 2 C3.67 2.66 3.34 3.32 3 4 C2.34 4 1.68 4 1 4 C0.67 4.66 0.34 5.32 0 6 C1.65 6 3.3 6 5 6 C5.33 4.68 5.66 3.36 6 2 C7.98 1.67 9.96 1.34 12 1 C12 2.32 12 3.64 12 5 C10.68 5 9.36 5 8 5 C7.67 5.66 7.34 6.32 7 7 C10.63 7 14.26 7 18 7 C18 7.33 18 7.66 18 8 C10.08 8 2.16 8 -6 8 C-5.67 7.01 -5.34 6.02 -5 5 C-4.34 5 -3.68 5 -3 5 C-2.67 4.01 -2.34 3.02 -2 2 C-1.34 1.34 -0.68 0.68 0 0 Z " fill="#3367AC" transform="translate(592,218)"/>
<path d="M0 0 C0.33 0.66 0.66 1.32 1 2 C0.67 2.66 0.34 3.32 0 4 C3.465 3.505 3.465 3.505 7 3 C7.19622241 7.21878192 6.80230168 10.17010894 5 14 C0.25 12.125 0.25 12.125 -2 11 C-2.05399736 9.54207116 -2.09279177 8.08357288 -2.125 6.625 C-2.15980469 5.40683594 -2.15980469 5.40683594 -2.1953125 4.1640625 C-2 2 -2 2 0 0 Z " fill="#2C5A97" transform="translate(570,211)"/>
<path d="M0 0 C2.31 0.33 4.62 0.66 7 1 C6.67 1.99 6.34 2.98 6 4 C21.84 4 37.68 4 54 4 C54 4.33 54 4.66 54 5 C36.18 5 18.36 5 0 5 C0 3.35 0 1.7 0 0 Z " fill="#E66800" transform="translate(297,640)"/>
<path d="M0 0 C4.875 1.75 4.875 1.75 6 4 C5.34 4.66 4.68 5.32 4 6 C4 6.33 4 6.66 4 7 C11.92 7.33 19.84 7.66 28 8 C28 8.33 28 8.66 28 9 C19.75 9 11.5 9 3 9 C3 9.66 3 10.32 3 11 C1.35 10.67 -0.3 10.34 -2 10 C-1.34 8.68 -0.68 7.36 0 6 C0.66 6 1.32 6 2 6 C2 5.01 2 4.02 2 3 C1.01 3.495 1.01 3.495 0 4 C-0.33 4.99 -0.66 5.98 -1 7 C-1.66 7 -2.32 7 -3 7 C-3.33 7.99 -3.66 8.98 -4 10 C-3.38461538 3.47692308 -3.38461538 3.47692308 -1.4375 1.0625 C-0.7259375 0.5365625 -0.7259375 0.5365625 0 0 Z " fill="#25508B" transform="translate(455,268)"/>
<path d="M0 0 C0.66 1.32 1.32 2.64 2 4 C1.34 4.66 0.68 5.32 0 6 C0.66 6 1.32 6 2 6 C1.67 7.65 1.34 9.3 1 11 C1.66 11.33 2.32 11.66 3 12 C1.02 12.33 -0.96 12.66 -3 13 C-3 12.01 -3 11.02 -3 10 C-4.65 10.66 -6.3 11.32 -8 12 C-8 11.34 -8 10.68 -8 10 C-7.01 9.67 -6.02 9.34 -5 9 C-5 8.34 -5 7.68 -5 7 C-5.33 7.66 -5.66 8.32 -6 9 C-6.66 9 -7.32 9 -8 9 C-7.67 7.35 -7.34 5.7 -7 4 C-6.34 4 -5.68 4 -5 4 C-5 3.01 -5 2.02 -5 1 C-4.34 1 -3.68 1 -3 1 C-2.67 2.32 -2.34 3.64 -2 5 C-1.34 3.35 -0.68 1.7 0 0 Z " fill="#2A5794" transform="translate(640,577)"/>
<path d="M0 0 C2.31 0 4.62 0 7 0 C6.67 0.99 6.34 1.98 6 3 C5.67 2.67 5.34 2.34 5 2 C4.67 2.66 4.34 3.32 4 4 C4.99 4.33 5.98 4.66 7 5 C7.33 6.65 7.66 8.3 8 10 C6.35 10 4.7 10 3 10 C3 10.99 3 11.98 3 13 C2.34 13.66 1.68 14.32 1 15 C-0.09658936 11.71023192 0.20046862 10.28696233 1 7 C0.34 6.67 -0.32 6.34 -1 6 C-0.835 5.195625 -0.67 4.39125 -0.5 3.5625 C0.03191839 1.2715557 0.03191839 1.2715557 0 0 Z " fill="#20477E" transform="translate(432,252)"/>
<path d="M0 0 C0.33 0 0.66 0 1 0 C1.02693575 2.12493141 1.04636628 4.24995912 1.0625 6.375 C1.07410156 7.55835938 1.08570313 8.74171875 1.09765625 9.9609375 C1 13 1 13 0 15 C0.66 15 1.32 15 2 15 C2.21824777 21.0018137 1.5056904 26.19233704 0 32 C-0.33 32 -0.66 32 -1 32 C-1.02465504 27.60343827 -1.04283842 23.2069128 -1.05493164 18.81030273 C-1.05997121 17.31355082 -1.06680287 15.81680384 -1.07543945 14.32006836 C-1.08752159 12.17300193 -1.09323191 10.02600038 -1.09765625 7.87890625 C-1.10289307 6.5854126 -1.10812988 5.29191895 -1.11352539 3.95922852 C-1 1 -1 1 0 0 Z " fill="#EB7B04" transform="translate(324,700)"/>
<path d="M0 0 C4.95 0 9.9 0 15 0 C15 0.33 15 0.66 15 1 C12.03 1 9.06 1 6 1 C5.34 2.32 4.68 3.64 4 5 C3.01 5 2.02 5 1 5 C1 5.99 1 6.98 1 8 C1.66 8 2.32 8 3 8 C2.34 11.96 1.68 15.92 1 20 C0.67 20 0.34 20 0 20 C0 13.4 0 6.8 0 0 Z " fill="#E36C03" transform="translate(297,619)"/>
<path d="M0 0 C0.99 1.32 1.98 2.64 3 4 C2.01 4.495 2.01 4.495 1 5 C1.17402344 5.54140625 1.34804688 6.0828125 1.52734375 6.640625 C2.09766505 9.48751809 1.87137301 11.86718522 1.5625 14.75 C1.46066406 15.73484375 1.35882812 16.7196875 1.25390625 17.734375 C1.12822266 18.85585937 1.12822266 18.85585937 1 20 C4.66447432 21.64800856 7.81203466 22.33580973 11.8125 22.625 C12.78832031 22.69976562 13.76414062 22.77453125 14.76953125 22.8515625 C15.50558594 22.90054688 16.24164062 22.94953125 17 23 C17 23.33 17 23.66 17 24 C11.39 24 5.78 24 0 24 C0 16.08 0 8.16 0 0 Z " fill="#3166AB" transform="translate(567,202)"/>
<path d="M0 0 C0.33 0 0.66 0 1 0 C1.16789126 2.43742131 1.33436133 4.87492546 1.5 7.3125 C1.54769531 8.00279297 1.59539062 8.69308594 1.64453125 9.40429688 C1.83879489 12.27662359 2 15.12013788 2 18 C2.01120845 19.35156683 2.02298144 20.70312903 2.03515625 22.0546875 C2.04445161 23.6614573 2.0535593 25.26822819 2.0625 26.875 C2.07087891 27.67808594 2.07925781 28.48117187 2.08789062 29.30859375 C2.10451308 33.34452614 2.01265813 37.06099907 1 41 C0.67 41 0.34 41 0 41 C0 27.47 0 13.94 0 0 Z " fill="#8F0F02" transform="translate(431,709)"/>
<path d="M0 0 C1.65 0 3.3 0 5 0 C5 6.27 5 12.54 5 19 C4.67 19 4.34 19 4 19 C4 15.37 4 11.74 4 8 C3.34 8 2.68 8 2 8 C2 9.32 2 10.64 2 12 C1.01 12 0.02 12 -1 12 C-1 11.34 -1 10.68 -1 10 C-0.34 10 0.32 10 1 10 C0.34 8.35 -0.32 6.7 -1 5 C0.32 4.34 1.64 3.68 3 3 C3 2.34 3 1.68 3 1 C2.01 0.67 1.02 0.34 0 0 Z " fill="#3166AC" transform="translate(453,279)"/>
<path d="M0 0 C7.26 0 14.52 0 22 0 C22 0.66 22 1.32 22 2 C20.72125 1.979375 19.4425 1.95875 18.125 1.9375 C13.03792983 1.92941245 8.0483853 2.40979211 3 3 C3.33 3.99 3.66 4.98 4 6 C3.01 5.67 2.02 5.34 1 5 C0.67 3.35 0.34 1.7 0 0 Z " fill="#26518B" transform="translate(567,200)"/>
<path d="M0 0 C2 1 4 2 6 3 C6.3125 5.3125 6.3125 5.3125 6 8 C3.6875 9.625 3.6875 9.625 1 11 C-0.75149165 12.58245275 -0.75149165 12.58245275 -2 14 C-2 11.36 -2 8.72 -2 6 C-1.34 6 -0.68 6 0 6 C0.33 6.66 0.66 7.32 1 8 C1 6.35 1 4.7 1 3 C0.34 3 -0.32 3 -1 3 C-0.67 2.01 -0.34 1.02 0 0 Z " fill="#244D85" transform="translate(434,349)"/>
<path d="M0 0 C0.99 0 1.98 0 3 0 C3.77321882 2.98241547 4.41196203 5.97580475 5 9 C6.65 8.34 8.3 7.68 10 7 C9.67 7.99 9.34 8.98 9 10 C7.741875 10.04125 6.48375 10.0825 5.1875 10.125 C4.47980469 10.14820313 3.77210938 10.17140625 3.04296875 10.1953125 C1 10 1 10 -2 8 C-1.33333333 5.33333333 -0.66666667 2.66666667 0 0 Z " fill="#1A3A69" transform="translate(630,288)"/>
<path d="M0 0 C0 0.66 0 1.32 0 2 C-7.92 2 -15.84 2 -24 2 C-24 1.34 -24 0.68 -24 0 C-20.75052139 -0.19738568 -17.50041127 -0.3811754 -14.25 -0.5625 C-13.32960938 -0.61857422 -12.40921875 -0.67464844 -11.4609375 -0.73242188 C-10.57148437 -0.78076172 -9.68203125 -0.82910156 -8.765625 -0.87890625 C-7.94868164 -0.9260376 -7.13173828 -0.97316895 -6.29003906 -1.02172852 C-4.02117925 -1.00020095 -2.16679079 -0.64612135 0 0 Z " fill="#21487F" transform="translate(614,621)"/>
<path d="M0 0 C0 0.99 0 1.98 0 3 C-1.65 3.66 -3.3 4.32 -5 5 C-5 5.66 -5 6.32 -5 7 C-4.01 7.33 -3.02 7.66 -2 8 C-3.98 8 -5.96 8 -8 8 C-8.12375 8.61875 -8.2475 9.2375 -8.375 9.875 C-9 12 -9 12 -11 14 C-11 8.99395125 -9.72766061 7.09149091 -7 3 C-2.55555556 0 -2.55555556 0 0 0 Z " fill="#2D5B99" transform="translate(473,254)"/>
<path d="M0 0 C1.17046875 0.03609375 2.3409375 0.0721875 3.546875 0.109375 C4.43890625 0.15578125 5.3309375 0.2021875 6.25 0.25 C6.58 1.24 6.91 2.23 7.25 3.25 C6.59 3.25 5.93 3.25 5.25 3.25 C4.92 3.91 4.59 4.57 4.25 5.25 C2.93 4.59 1.61 3.93 0.25 3.25 C0.25 2.59 0.25 1.93 0.25 1.25 C-0.41 1.25 -1.07 1.25 -1.75 1.25 C-1.75 1.91 -1.75 2.57 -1.75 3.25 C-2.41 3.25 -3.07 3.25 -3.75 3.25 C-3.75 2.59 -3.75 1.93 -3.75 1.25 C-4.41 1.25 -5.07 1.25 -5.75 1.25 C-5.75 1.91 -5.75 2.57 -5.75 3.25 C-7.4 3.58 -9.05 3.91 -10.75 4.25 C-7.43152371 0.07726249 -5.22729025 -0.20909161 0 0 Z " fill="#255088" transform="translate(511.75,226.75)"/>
<path d="M0 0 C0.33 0.66 0.66 1.32 1 2 C1.99 2 2.98 2 4 2 C4 8.6 4 15.2 4 22 C3.34 21.67 2.68 21.34 2 21 C2.33 16.38 2.66 11.76 3 7 C2.34 7 1.68 7 1 7 C1 6.34 1 5.68 1 5 C0.01 4.67 -0.98 4.34 -2 4 C-2 3.34 -2 2.68 -2 2 C-1.34 2 -0.68 2 0 2 C0 1.34 0 0.68 0 0 Z " fill="#1D4378" transform="translate(454,430)"/>
<path d="M0 0 C4.24822374 0.47202486 6.19989709 2.96655518 9 6 C8.67 6.99 8.34 7.98 8 9 C7.01 9 6.02 9 5 9 C5.33 7.68 5.66 6.36 6 5 C5.01 5.495 5.01 5.495 4 6 C3.01 6.33 2.02 6.66 1 7 C1 6.34 1 5.68 1 5 C-0.32 4.67 -1.64 4.34 -3 4 C-1.68 4 -0.36 4 1 4 C0.67 2.68 0.34 1.36 0 0 Z " fill="#2D5A98" transform="translate(541,239)"/>
<path d="M0 0 C0.99 0.33 1.98 0.66 3 1 C1.68 1.33 0.36 1.66 -1 2 C-1 2.66 -1 3.32 -1 4 C-0.113125 3.505 0.77375 3.01 1.6875 2.5 C4.87586238 1.05621326 6.58187546 0.69840078 10 1 C9.401875 1.268125 8.80375 1.53625 8.1875 1.8125 C5.95745037 2.87102051 5.95745037 2.87102051 4.5 4.625 C3 6 3 6 -1 6 C-1 6.66 -1 7.32 -1 8 C-2.32 8 -3.64 8 -5 8 C-5 7.34 -5 6.68 -5 6 C-4.34 5.67 -3.68 5.34 -3 5 C-2.835 4.34 -2.67 3.68 -2.5 3 C-2.335 2.34 -2.17 1.68 -2 1 C-1.34 0.67 -0.68 0.34 0 0 Z " fill="#234D86" transform="translate(436,333)"/>
<path d="M0 0 C0.99 0.33 1.98 0.66 3 1 C2.34 1 1.68 1 1 1 C1.33 2.32 1.66 3.64 2 5 C-4.435 5.495 -4.435 5.495 -11 6 C-11 4.35 -11 2.7 -11 1 C-10.67 1.99 -10.34 2.98 -10 4 C-5.17805357 3.67495741 -5.17805357 3.67495741 -1.0625 1.4375 C-0.711875 0.963125 -0.36125 0.48875 0 0 Z " fill="#2D5B98" transform="translate(496,245)"/>
<path d="M0 0 C0.33 0 0.66 0 1 0 C1 5.61 1 11.22 1 17 C1.66 17 2.32 17 3 17 C3.33 17.99 3.66 18.98 4 20 C3.34 20.33 2.68 20.66 2 21 C1.59270772 23.32156597 1.25561323 25.6568787 1 28 C0.67 28 0.34 28 0 28 C0 18.76 0 9.52 0 0 Z " fill="#2F69B2" transform="translate(431,311)"/>
<path d="M0 0 C7.26 0 14.52 0 22 0 C22 0.33 22 0.66 22 1 C14.46818582 1.75667376 7.49719609 2.14364008 0 1 C0 0.67 0 0.34 0 0 Z M8 2 C8.33 2.99 8.66 3.98 9 5 C7.68 5.33 6.36 5.66 5 6 C5 5.01 5 4.02 5 3 C5.99 2.67 6.98 2.34 8 2 Z " fill="#102A4F" transform="translate(671,570)"/>
<path d="M0 0 C0.66 0 1.32 0 2 0 C2 0.99 2 1.98 2 3 C5.63 3 9.26 3 13 3 C13 3.33 13 3.66 13 4 C4.42 4 -4.16 4 -13 4 C-13 3.67 -13 3.34 -13 3 C-12.14535156 2.95101563 -11.29070312 2.90203125 -10.41015625 2.8515625 C-9.30542969 2.77679688 -8.20070313 2.70203125 -7.0625 2.625 C-5.40927734 2.52058594 -5.40927734 2.52058594 -3.72265625 2.4140625 C-2.37494141 2.20910156 -2.37494141 2.20910156 -1 2 C-0.67 1.34 -0.34 0.68 0 0 Z " fill="#2E60A2" transform="translate(470,272)"/>
<path d="M0 0 C0.99 0 1.98 0 3 0 C3 0.66 3 1.32 3 2 C4.32 2 5.64 2 7 2 C6 5 6 5 3 7 C0.3125 7.125 0.3125 7.125 -2 7 C-1.34 6.01 -0.68 5.02 0 4 C0.66 4.33 1.32 4.66 2 5 C1.34 3.35 0.68 1.7 0 0 Z " fill="#2C5A99" transform="translate(447,306)"/>
<path d="M0 0 C0.33 0.66 0.66 1.32 1 2 C1.99 2 2.98 2 4 2 C4 3.32 4 4.64 4 6 C0.04 6 -3.92 6 -8 6 C-8 5.67 -8 5.34 -8 5 C-6.35 4.67 -4.7 4.34 -3 4 C-3 3.34 -3 2.68 -3 2 C-2.01 2 -1.02 2 0 2 C0 1.34 0 0.68 0 0 Z " fill="#234D86" transform="translate(665,590)"/>
<path d="M0 0 C0.66 0.33 1.32 0.66 2 1 C1.74438677 3.3431213 1.40729228 5.67843403 1 8 C0.01 8.495 0.01 8.495 -1 9 C-1.99 8.34 -2.98 7.68 -4 7 C-4 6.01 -4 5.02 -4 4 C-3.34 4 -2.68 4 -2 4 C-1.34 2.68 -0.68 1.36 0 0 Z " fill="#CB4F04" transform="translate(295,766)"/>
<path d="M0 0 C0.66 0 1.32 0 2 0 C2 1.98 2 3.96 2 6 C1.01 6.33 0.02 6.66 -1 7 C-1 7.66 -1 8.32 -1 9 C-0.34 9 0.32 9 1 9 C1 9.66 1 10.32 1 11 C-0.32 11.33 -1.64 11.66 -3 12 C-2.40075776 7.80530429 -1.42500059 3.99000166 0 0 Z " fill="#2B5A99" transform="translate(455,287)"/>
<path d="M0 0 C0.99 0.33 1.98 0.66 3 1 C3.33 2.32 3.66 3.64 4 5 C0.7 5 -2.6 5 -6 5 C-5.34 3.68 -4.68 2.36 -4 1 C-4 1.66 -4 2.32 -4 3 C-3.01 2.67 -2.02 2.34 -1 2 C-0.67 1.34 -0.34 0.68 0 0 Z " fill="#2D5D9D" transform="translate(605,220)"/>
<path d="M0 0 C0.99 0.495 0.99 0.495 2 1 C2.33 1.99 2.66 2.98 3 4 C5.01508358 4.73323796 5.01508358 4.73323796 7 5 C6.67 5.99 6.34 6.98 6 8 C4.35 8 2.7 8 1 8 C0.67 5.36 0.34 2.72 0 0 Z " fill="#1A3B6B" transform="translate(617,290)"/>
<path d="M0 0 C1.65 0 3.3 0 5 0 C5 2.66666667 5 5.33333333 5 8 C2.5 6.8125 2.5 6.8125 0 5 C-0.3125 2.3125 -0.3125 2.3125 0 0 Z " fill="#28548F" transform="translate(568,217)"/>
<path d="M0 0 C0.33 0 0.66 0 1 0 C1 3.96 1 7.92 1 12 C0.67 11.34 0.34 10.68 0 10 C-1.98 10.99 -1.98 10.99 -4 12 C-3.67 10.02 -3.34 8.04 -3 6 C-2.34 6 -1.68 6 -1 6 C-1.020625 5.195625 -1.04125 4.39125 -1.0625 3.5625 C-1 1 -1 1 0 0 Z " fill="#234B84" transform="translate(456,355)"/>
<path d="M0 0 C0.99 0 1.98 0 3 0 C3 0.66 3 1.32 3 2 C3.66 2.33 4.32 2.66 5 3 C4.67 3.66 4.34 4.32 4 5 C4.99 5.33 5.98 5.66 7 6 C3.86650268 7.04449911 3.01031744 6.93423645 0 6 C0 4.02 0 2.04 0 0 Z " fill="#285490" transform="translate(432,270)"/>
<path d="M0 0 C0.33 0 0.66 0 1 0 C1 2.64 1 5.28 1 8 C-0.98 8 -2.96 8 -5 8 C-5.33 7.34 -5.66 6.68 -6 6 C-4.35 6 -2.7 6 -1 6 C-1.33 5.01 -1.66 4.02 -2 3 C-1.34 2.01 -0.68 1.02 0 0 Z " fill="#1F467B" transform="translate(588,639)"/>
<path d="M0 0 C3 2 3 2 4 4 C4.99 4.66 5.98 5.32 7 6 C3.7 6 0.4 6 -3 6 C-2.01 5.01 -1.02 4.02 0 3 C0 2.01 0 1.02 0 0 Z " fill="#193A6A" transform="translate(646,292)"/>
<path d="M0 0 C2.31 0 4.62 0 7 0 C7 0.99 7 1.98 7 3 C4.69 3.33 2.38 3.66 0 4 C0 2.68 0 1.36 0 0 Z " fill="#142A4C" transform="translate(459,353)"/>
<path d="M0 0 C1.98 0 3.96 0 6 0 C6 0.99 6 1.98 6 3 C5.01 3 4.02 3 3 3 C3.33 3.99 3.66 4.98 4 6 C3.01 5.67 2.02 5.34 1 5 C0.67 3.35 0.34 1.7 0 0 Z " fill="#295793" transform="translate(567,200)"/>
<path d="M0 0 C2.00720923 0.28674418 4.0085944 0.61866701 6 1 C6 1.66 6 2.32 6 3 C1.38 3 -3.24 3 -8 3 C-7.67 2.34 -7.34 1.68 -7 1 C-5.5459375 1.0309375 -5.5459375 1.0309375 -4.0625 1.0625 C-1.12534105 1.35618499 -1.12534105 1.35618499 0 0 Z " fill="#234C85" transform="translate(605,592)"/>
<path d="M0 0 C-0.99 0.33 -1.98 0.66 -3 1 C-3 1.66 -3 2.32 -3 3 C-3.66 3 -4.32 3 -5 3 C-5 2.34 -5 1.68 -5 1 C-8.3 1 -11.6 1 -15 1 C-15 0.67 -15 0.34 -15 0 C-4.44191344 -1.33257403 -4.44191344 -1.33257403 0 0 Z " fill="#901500" transform="translate(403,778)"/>
<path d="M0 0 C-0.33 0.66 -0.66 1.32 -1 2 C-2.32 2 -3.64 2 -5 2 C-5.66 3.32 -6.32 4.64 -7 6 C-7.33 6 -7.66 6 -8 6 C-8 4.35 -8 2.7 -8 1 C-5.07175348 0.02391783 -3.04386724 -0.08226668 0 0 Z " fill="#27538E" transform="translate(440,289)"/>
<path d="M0 0 C0.66 0 1.32 0 2 0 C2 4.29 2 8.58 2 13 C1.01 12.67 0.02 12.34 -1 12 C-0.9278125 11.21753906 -0.855625 10.43507813 -0.78125 9.62890625 C-0.6884375 8.61699219 -0.595625 7.60507812 -0.5 6.5625 C-0.4071875 5.55316406 -0.314375 4.54382813 -0.21875 3.50390625 C-0.05845072 1.75417336 -0.05845072 1.75417336 0 0 Z " fill="#1C4175" transform="translate(665,274)"/>
<path d="M0 0 C2.94887797 0.50842724 5.37371875 1.59306362 8 3 C7 4 7 4 4.0625 4.25 C3.051875 4.1675 2.04125 4.085 1 4 C0.34 3.01 -0.32 2.02 -1 1 C-0.67 0.67 -0.34 0.34 0 0 Z " fill="#305E9D" transform="translate(526,246)"/>
<path d="M0 0 C0.33 0 0.66 0 1 0 C1 2.97 1 5.94 1 9 C0.67 7.68 0.34 6.36 0 5 C-1.32 5 -2.64 5 -4 5 C-4 4.01 -4 3.02 -4 2 C-3.01 2 -2.02 2 -1 2 C-0.67 1.34 -0.34 0.68 0 0 Z " fill="#E46500" transform="translate(403,749)"/>
<path d="M0 0 C0.99 0.495 0.99 0.495 2 1 C1.67 1.99 1.34 2.98 1 4 C1.66 4 2.32 4 3 4 C3 5.98 3 7.96 3 10 C2.01 10 1.02 10 0 10 C0 6.7 0 3.4 0 0 Z " fill="#1B3E6F" transform="translate(693,518)"/>
<path d="M0 0 C1.65 0 3.3 0 5 0 C4.34 1.65 3.68 3.3 3 5 C2.01 5 1.02 5 0 5 C0 3.35 0 1.7 0 0 Z " fill="#183B69" transform="translate(431,427)"/>
<path d="M0 0 C2.64 0 5.28 0 8 0 C8.33 0.99 8.66 1.98 9 3 C5.625 3.1875 5.625 3.1875 2 3 C1.34 2.01 0.68 1.02 0 0 Z " fill="#224B83" transform="translate(557,234)"/>
<path d="M0 0 C0.99 0.33 1.98 0.66 3 1 C3.6875 3.0625 3.6875 3.0625 4 5 C2.02 5.99 2.02 5.99 0 7 C0 4.69 0 2.38 0 0 Z " fill="#183B6B" transform="translate(431,383)"/>
<path d="M0 0 C2.97 0.495 2.97 0.495 6 1 C5.67 1.99 5.34 2.98 5 4 C3.35 4 1.7 4 0 4 C-0.33 3.34 -0.66 2.68 -1 2 C-0.67 1.34 -0.34 0.68 0 0 Z " fill="#244F89" transform="translate(464,271)"/>
<path d="M0 0 C2.64 0.33 5.28 0.66 8 1 C8 1.99 8 2.98 8 4 C7.34 4 6.68 4 6 4 C6 3.34 6 2.68 6 2 C4.35 2.33 2.7 2.66 1 3 C0.67 2.01 0.34 1.02 0 0 Z " fill="#234D85" transform="translate(431,376)"/>
<path d="M0 0 C0.99 0 1.98 0 3 0 C3 0.99 3 1.98 3 3 C0.69 3.33 -1.62 3.66 -4 4 C-3.34 3.67 -2.68 3.34 -2 3 C-1.67 2.34 -1.34 1.68 -1 1 C-0.67 0.67 -0.34 0.34 0 0 Z " fill="#234A80" transform="translate(444,379)"/>
<path d="M0 0 C1.98 0 3.96 0 6 0 C6.33 0.99 6.66 1.98 7 3 C6.34 3 5.68 3 5 3 C5 2.34 5 1.68 5 1 C4.34 1 3.68 1 3 1 C3 1.99 3 2.98 3 4 C2.01 4 1.02 4 0 4 C0 2.68 0 1.36 0 0 Z " fill="#2B5A97" transform="translate(431,378)"/>
<path d="M0 0 C0.33 0.66 0.66 1.32 1 2 C0.01 2.33 -0.98 2.66 -2 3 C-2 2.34 -2 1.68 -2 1 C-3.98 1.33 -5.96 1.66 -8 2 C-6.18415346 -1.63169308 -3.37971234 -1.23922786 0 0 Z " fill="#3062A4" transform="translate(441,283)"/>
<path d="M0 0 C0.66 0.99 1.32 1.98 2 3 C1.34 3 0.68 3 0 3 C-0.12375 3.639375 -0.2475 4.27875 -0.375 4.9375 C-0.58125 5.618125 -0.7875 6.29875 -1 7 C-1.99 7.495 -1.99 7.495 -3 8 C-2.25 2.25 -2.25 2.25 0 0 Z " fill="#2E5D9E" transform="translate(456,256)"/>
</svg>
